<svg xmlns="http://www.w3.org/2000/svg" xmlns:xlink="http://www.w3.org/1999/xlink" viewBox="206 500 400 400"><defs><style>.a{clip-path:url(#b);}.b{fill:#966c6c;}.c{fill:#360a21;}.d{fill:#1a1515;}.e{fill:#f4e7a8;}.f{fill:#cc8692;}.g{fill:#fff;}.h{fill:#a0a77a;}.i{fill:#4c3f05;}.j{fill:#39310a;}.k{fill:#ddaeb7;}.l{fill:#261f20;}.m{fill:#4e3f42;}.n{fill:#de8138;}.o{fill:#e4c326;}.p{fill:#e59a60;}.q{fill:#ebb388;}.r{fill:#e9cf51;}.s{fill:#925550;}.t{fill:#efdb7d;}.u{fill:#cdcbb2;}.v{fill:#ada753;}.w{fill:#dedcba;}.x{fill:#d8afac;}.y{fill:#9e3830;}.z{fill:#ecd7d6;}.aa{fill:#772a24;}.ab{fill:#4f1c18;}.ac{fill:#ab921d;}.ad{fill:#827d3e;}.ae{fill:#ceca98;}.af{fill:#d69ea8;}.ag{fill:#726213;}.ah{fill:#8e7746;}.ai{fill:#c0bea8;}.aj{fill:#bdb975;}.ak{fill:#733b7c;}.al{fill:#492144;}.am{fill:#d5e8e9;}.an{fill:#5b6a69;}.ao{fill:#103637;}.ap{fill:#185053;}.aq{fill:#301e1f;}.ar{fill:#5779a1;}.as{fill:#206b6e;}.at{fill:#819ab9;}.au{fill:#abbcd0;}.av{fill:#aad2d4;}.aw{fill:#c57570;}.ax{fill:#bbdbdd;}.ay{fill:#d2e1e2;}.az{fill:#ddedee;}.ba{fill:#baa2a0;}.bb{fill:#744440;}.bc{fill:#dcd0cf;}.bd{fill:#521511;}.be{fill:#3d100c;}.bf{fill:#2b8e93;}.bg{fill:#80bbbe;}.bh{fill:#9ccad6;}.bi{fill:#d3f0f1;}.bj{fill:#cfdada;}.bk{fill:#79a6a8;}.bl{fill:#468e8c;}.bm{fill:#a6c4c5;}.bn{fill:#c07fbd;}.bo{fill:#692620;}</style><clipPath id="b"><rect x="206" y="500" width="400" height="400"/></clipPath></defs><g id="a" class="a"><g transform="translate(274.108 500)"><path class="b" d="M10.738,241.8,0,73.393V175Z" transform="translate(0 18.406)"/><path class="c" d="M0,87.605,33.745,16.723,10.04,144.037,0,189.217Z" transform="translate(0 4.194)"/><path class="d" d="M203.24,233.387l31.793-126.451-21.058,59.656Z" transform="translate(50.97 26.818)"/><path class="e" d="M88.805,181.7h14.643l-24.4,108.092L30.66,172.357l5.156,5.161,7.253,6.693L58.686,187Z" transform="translate(7.689 43.225)"/><path class="f" d="M132.474,50.1,42.391,70.405,10.04,135.666,0,180.846Z" transform="translate(0 12.564)"/><path class="g" d="M87.772,182.679,73.829,170.965l-22.6-2.51L34.782,178.5l7.253,6.693,15.617,2.788Z" transform="translate(8.723 42.246)"/><path class="h" d="M68.173,175.785a10.563,10.563,0,1,1-10.562-10.562,10.56,10.56,0,0,1,10.562,10.562" transform="translate(11.799 41.436)"/><path d="M60.515,173.628a3.974,3.974,0,1,1-3.975-3.975,3.976,3.976,0,0,1,3.975,3.975" transform="translate(13.183 42.547)"/><path class="g" d="M57.876,172.978a1.151,1.151,0,1,1-1.148-1.151,1.149,1.149,0,0,1,1.148,1.151" transform="translate(13.937 43.092)"/><path class="i" d="M67.113,164.776,79.943,183.6,66,171.889Z" transform="translate(16.552 41.324)"/><path class="j" d="M71.144,172.81l-22.6-2.51-3.059-9.2,26.774,4.6Z" transform="translate(11.407 40.401)"/><path class="k" d="M132.474,50.1V192.281L99,178.615,45.46,169.132,0,180.846Z" transform="translate(0 12.564)"/><path class="l" d="M16.7,153.384l24.567-6.329,53.545,9.483-5.577-13.387-44.623-5.021Z" transform="translate(4.189 34.641)"/><path class="m" d="M34.782,176.483l6.188,7.458,17.048,3.295,29.754-6.569-30.12,5.3-15.616-2.788Z" transform="translate(8.723 44.26)"/><path d="M34.782,178.5l16.465-9.365,22.562,2.13L87.772,182.68,73.828,170.967l-22.6-2.512Z" transform="translate(8.723 42.246)"/><path class="n" d="M24.081,263.219l29.831,34.3,51.708,34.826L80.7,267.005Z" transform="translate(6.039 66.012)"/><path class="o" d="M0,154.631l10.737,66.795L38.348,176.8Z" transform="translate(0 38.779)"/><path class="p" d="M84.583,280.845l-56.616-3.786L8.584,208.033l31.1,55.081Z" transform="translate(2.153 52.172)"/><path class="q" d="M94.269,331.59l20.814,1.872V297.6L93.33,295.927,69.345,266.246Z" transform="translate(17.391 66.771)"/><path class="r" d="M36.195,172.357,84.584,289.792l-44.9-17.731L8.585,216.98Z" transform="translate(2.153 43.225)"/><path class="s" d="M113.3,240.883H90.147l-13.676-6.2Z" transform="translate(19.178 58.854)"/><path class="t" d="M91.934,240.883l12.9,15.689-35.49,17.591,8.913-39.484Z" transform="translate(17.391 58.854)"/><path class="u" d="M107.968,239.639v19.347l-10.249-3.659Z" transform="translate(24.507 60.098)"/><path class="v" d="M100.3,255.328l-12.9-15.689h23.148Z" transform="translate(21.92 60.098)"/><path class="w" d="M108.876,163.773,94.1,231.264l14.779,8.367Z" transform="translate(23.598 41.072)"/><path class="x" d="M69.345,266.246l23.985,29.68,21.752,1.674v-10.04l-20.813-.279Z" transform="translate(17.391 66.771)"/><path class="y" d="M115.084,287.559V272.5l-45.738-6.254Z" transform="translate(17.391 66.771)"/><path class="z" d="M115.084,287.559,69.346,266.246l24.922,21.035Z" transform="translate(17.391 66.771)"/><path class="z" d="M115.084,255.841l-10.249-3.659L69.346,269.773,100.3,264.1l14.779,1.772Z" transform="translate(17.391 63.244)"/><path class="aa" d="M115.084,268.895l-45.738-1.512,30.958-5.669,14.779,1.772Z" transform="translate(17.391 65.634)"/><path class="ab" d="M115.084,267.758l-45.738-1.512,45.738,6.254Z" transform="translate(17.391 66.771)"/><path class="ac" d="M45.46,145.266,0,156.98l38.348,22.171Z" transform="translate(0 36.431)"/><path class="o" d="M30.659,179.151,49.2,165.068l-11.432-19.8Z" transform="translate(7.689 36.431)"/><path class="r" d="M47.777,165.068l26.773,4.6,15.341-14.922-53.547-9.482Z" transform="translate(9.115 36.431)"/><path class="ad" d="M91.959,179.827l6.557,47.411-22.045,21.2Z" transform="translate(19.178 45.098)"/><path class="ae" d="M88.854,183.853l21.337-20.08L95.411,231.264Z" transform="translate(22.283 41.072)"/><path class="af" d="M112.624,166.513l-33.47-13.666,12.133,33.747Z" transform="translate(19.851 38.332)"/><path class="t" d="M79.719,186.593H94.362L82.231,152.848,66.89,167.767Z" transform="translate(16.775 38.332)"/><path class="ag" d="M52.263,170.3,49.2,161.1,30.659,175.181l5.158,5.159Z" transform="translate(7.689 40.401)"/><path class="ah" d="M110.555,241.554,98.143,232l-10.738,5.56Z" transform="translate(21.92 58.183)"/><path class="ai" d="M94.1,217.732l2.369,17.85,12.409,9.551V226.1Z" transform="translate(23.598 54.604)"/><path class="aj" d="M98.517,217.732l2.369,17.85-10.738,5.558-13.677-2.211Z" transform="translate(19.178 54.604)"/><path class="ak" d="M125.709,62.664,35.626,82.97,26.979,20.917,125.709,0Z" transform="translate(6.766)"/><path class="al" d="M31.732,16.723,8.028,144.037l32.35-65.261Z" transform="translate(2.013 4.194)"/><path class="am" d="M137.612,181.7H122.969l24.4,108.092,48.387-117.435-5.158,5.161-7.253,6.693L167.73,187Z" transform="translate(30.839 43.225)"/><path class="x" d="M105.913,50.1l90.08,20.305,32.353,65.261,10.036,45.18Z" transform="translate(26.562 12.564)"/><path class="g" d="M134.676,182.679l13.944-11.714,22.6-2.51L187.664,178.5l-7.253,6.693-15.617,2.788Z" transform="translate(33.775 42.246)"/><path class="an" d="M147.887,175.785a10.563,10.563,0,1,0,10.562-10.562,10.561,10.561,0,0,0-10.562,10.562" transform="translate(37.088 41.436)"/><path d="M152.9,173.628a3.974,3.974,0,1,0,3.976-3.975,3.977,3.977,0,0,0-3.976,3.975" transform="translate(38.346 42.547)"/><path class="g" d="M154.408,172.978a1.151,1.151,0,1,0,1.151-1.151,1.151,1.151,0,0,0-1.151,1.151" transform="translate(38.723 43.092)"/><path class="ao" d="M147.5,164.776,134.676,183.6l13.945-11.712Z" transform="translate(33.775 41.324)"/><path class="ap" d="M146.048,172.81l22.6-2.51,3.057-9.2-26.774,4.6Z" transform="translate(36.347 40.401)"/><path class="z" d="M105.913,50.1V192.281l33.467-13.666,53.545-9.482,45.457,11.714Z" transform="translate(26.562 12.564)"/><path class="aq" d="M210.778,153.384l-24.563-6.329-53.545,9.483,5.576-13.387,44.623-5.021Z" transform="translate(33.272 34.641)"/><path class="m" d="M187.665,176.483l-6.189,7.458-17.047,3.295-29.752-6.569,30.118,5.3,15.616-2.788Z" transform="translate(33.775 44.26)"/><path d="M187.665,178.5,171.2,169.132l-22.564,2.13L134.677,182.68l13.943-11.714,22.6-2.512Z" transform="translate(33.775 42.246)"/><path class="ar" d="M204.093,263.219l-29.831,34.3-51.71,34.826,24.924-65.344Z" transform="translate(30.734 66.012)"/><path class="as" d="M219.51,154.631l-10.734,66.795L181.165,176.8Z" transform="translate(45.434 38.779)"/><path class="at" d="M142.479,280.845l56.617-3.786,19.382-69.026-31.1,55.081Z" transform="translate(35.732 52.172)"/><path class="au" d="M126.724,331.59l-20.812,1.872V297.6l21.755-1.672,23.983-29.681Z" transform="translate(26.561 66.771)"/><path class="av" d="M190.866,172.357,142.479,289.792l44.9-17.731,31.095-55.081Z" transform="translate(35.732 43.225)"/><path class="aw" d="M105.913,240.883H129.06l13.677-6.2Z" transform="translate(26.562 58.854)"/><path class="ax" d="M127,240.883l-12.9,15.689,35.49,17.591-8.912-39.484Z" transform="translate(28.616 58.854)"/><path class="ay" d="M105.913,239.639v19.347l10.246-3.659Z" transform="translate(26.562 60.098)"/><path class="az" d="M116.161,255.328l12.9-15.689H105.913Z" transform="translate(26.562 60.098)"/><path class="ay" d="M105.913,163.773l14.779,67.491-14.779,8.367Z" transform="translate(26.562 41.072)"/><path class="ba" d="M151.649,266.246l-23.984,29.68L105.913,297.6v-10.04l20.811-.279Z" transform="translate(26.562 66.771)"/><path class="bb" d="M105.913,287.559V272.5l45.736-6.254Z" transform="translate(26.562 66.771)"/><path class="bc" d="M105.913,287.559l45.736-21.313-24.924,21.035Z" transform="translate(26.562 66.771)"/><path class="ba" d="M105.913,255.841l10.246-3.659,35.49,17.591L120.692,264.1l-14.779,1.772Z" transform="translate(26.562 63.244)"/><path class="bd" d="M105.913,268.895l45.736-1.512-30.957-5.669-14.779,1.772Z" transform="translate(26.562 65.634)"/><path class="be" d="M105.913,267.758l45.736-1.512L105.913,272.5Z" transform="translate(26.562 66.771)"/><path class="bf" d="M175.48,145.266l45.457,11.714-38.347,22.171Z" transform="translate(44.008 36.431)"/><path class="bg" d="M184.882,179.151l-18.544-14.083,11.433-19.8Z" transform="translate(41.715 36.431)"/><path class="av" d="M174.782,165.068l-26.773,4.6-15.34-14.922,53.547-9.482Z" transform="translate(33.272 36.431)"/><path class="bh" d="M124.283,179.827l-6.554,47.411,22.044,21.2Z" transform="translate(29.525 45.098)"/><path class="bi" d="M127.247,183.853l-21.335-20.08,14.781,67.491Z" transform="translate(26.561 41.072)"/><path class="bj" d="M105.913,166.513l33.467-13.666-12.133,33.747Z" transform="translate(26.562 38.332)"/><path class="am" d="M137.612,186.593H122.969L135.1,152.848l15.34,14.919Z" transform="translate(30.839 38.332)"/><path class="bk" d="M163.9,170.3l3.054-9.2L185.5,175.181l-5.16,5.159Z" transform="translate(41.103 40.401)"/><path class="bl" d="M105.913,241.554,118.323,232l10.737,5.56Z" transform="translate(26.562 58.183)"/><path class="bm" d="M120.692,217.732l-2.37,17.85-12.409,9.551V226.1Z" transform="translate(26.562 54.604)"/><path class="bm" d="M118.2,217.732l-2.37,17.85,10.737,5.558,13.677-2.211Z" transform="translate(29.05 54.604)"/><path class="bn" d="M105.913,62.664l90.08,20.305,8.646-62.053L105.913,0Z" transform="translate(26.562)"/><path class="y" d="M186.577,16.723l23.706,127.314L177.932,78.776Z" transform="translate(44.623 4.194)"/><path class="bo" d="M239.646,129.562l-54.8-112.839,23.707,127.314,10.036,45.18Z" transform="translate(46.356 4.194)"/></g></g></svg>