<svg id="Layer_1" data-name="Layer 1" xmlns="http://www.w3.org/2000/svg" width="314.53" height="103.17" viewBox="0 0 314.53 103.17"><title>logo-dnr</title><path id="Fill-1" d="M51.55,103.17A51.58,51.58,0,0,1,51.55,0c1.36,0,2.73.05,4.06.16A2.44,2.44,0,0,1,55.23,5c-1.2-.09-2.44-.14-3.67-.14A46.67,46.67,0,1,0,91.84,28a2.44,2.44,0,0,1,4.21-2.47,51.6,51.6,0,0,1-44.5,77.64" transform="translate(0 0)" style="fill:#7fc263"/><path id="Fill-3" d="M51.55,95.41A43.52,43.52,0,0,1,16.85,78.32a2.44,2.44,0,1,1,3.86-3A38.94,38.94,0,1,0,51.55,12.64,39.09,39.09,0,0,0,13.47,43.5a2.44,2.44,0,1,1-4.77-1A43.81,43.81,0,1,1,51.55,95.41" transform="translate(0 0)" style="fill:#7dc6cc"/><path id="Fill-5" d="M51.55,87.8A36.19,36.19,0,1,1,83.71,68.23,2.44,2.44,0,1,1,79.38,66a31,31,0,0,0,3.49-14.4A31.32,31.32,0,1,0,51.55,82.92a31.86,31.86,0,0,0,4.33-.3,2.44,2.44,0,0,1,.67,4.84,36.69,36.69,0,0,1-5,.34" transform="translate(0 0)" style="fill:#37a872"/><path id="Fill-7" d="M51.55,79.8a28.24,28.24,0,0,1-28.2-28.22c0-.79,0-1.58.1-2.34a2.44,2.44,0,1,1,4.86.4c-.05.63-.08,1.28-.08,1.94A23.32,23.32,0,1,0,51.55,28.25a23.1,23.1,0,0,0-14,4.7,2.44,2.44,0,0,1-2.94-3.9,27.94,27.94,0,0,1,17-5.69,28.22,28.22,0,0,1,0,56.43" transform="translate(0 0)" style="fill:#7fc263"/><path id="Fill-9" d="M119.59,87h1.58V71.64h0L127.94,87h2.12V69.37h-1.58V84.7h0l-6.73-15.33h-2.12Zm17-6.46,2.71-9.91h0L142,80.51ZM133.13,87h1.67l1.43-5.13h6.16L143.82,87h1.67l-5.2-17.6h-2Zm17,0h1.58V70.7h4.53V69.37H145.62V70.7h4.53ZM159.28,82c0,3.7,1.8,5.23,5,5.23s5-1.53,5-5.23V69.37h-1.58V82c0,2.64-1.13,3.92-3.45,3.92s-3.45-1.28-3.45-3.92V69.37h-1.58ZM173.45,87H175v-8h3c2.83,0,3.4,1,3.5,4.09l0,1.48A5.31,5.31,0,0,0,182,87h1.85a3.87,3.87,0,0,1-.74-2.59l0-1.92c-.07-2.71-.81-4-3-4.17v0c2.34-.44,3.18-2.34,3.18-4.46,0-2.74-1.63-4.41-4.56-4.41h-5.25ZM175,70.7h2.88c2.86,0,3.77,1.31,3.77,3.45,0,2.32-1.45,3.45-3.94,3.45H175Zm22.66,3.18c0-3.13-1.5-4.81-4.78-4.81-3.05,0-4.85,1.9-4.85,4.66,0,6.39,8.53,3.4,8.53,8.63,0,2.47-1.58,3.57-3.79,3.57s-3.5-1.5-3.5-3.75v-.67h-1.58V82c0,3.45,1.82,5.23,5.12,5.23s5.32-1.75,5.32-5.15c0-6.19-8.52-3.3-8.52-8.55A3.06,3.06,0,0,1,193,70.4c2.14,0,3.15,1.31,3.15,3.48Zm13,7.12c-.17,3-1.43,4.93-3.65,4.93-2.51,0-4-2.07-4-7.76s1.53-7.77,4-7.77c2.27,0,3.47,1.7,3.47,4.09h1.58c0-2.88-1.48-5.42-5.05-5.42s-5.62,2.79-5.62,9.1,2,9.1,5.62,9.1c3.15,0,5-2.24,5.22-6.26Zm13.54,6h1.58V69.37h-1.58v7.5h-6.87v-7.5h-1.58V87h1.58V78.19h6.87ZM229.88,82c0,3.7,1.8,5.23,5,5.23s5-1.53,5-5.23V69.37h-1.58V82c0,2.64-1.13,3.92-3.45,3.92s-3.45-1.28-3.45-3.92V69.37h-1.58ZM247.48,87h1.58V70.7h4.53V69.37H243V70.7h4.53Zm8.59,0h10.3V85.64h-8.55l8.43-14.79V69.37h-9.68V70.7h8.08l-8.58,14.79Zm13.63,0h1.58v-8h3c2.83,0,3.4,1,3.5,4.09l0,1.48a5.31,5.31,0,0,0,.47,2.47h1.85a3.87,3.87,0,0,1-.74-2.59l0-1.92c-.07-2.71-.81-4-3-4.17v0c2.34-.44,3.18-2.34,3.18-4.46,0-2.74-1.63-4.41-4.56-4.41H269.7Zm1.58-16.27h2.88c2.86,0,3.77,1.31,3.77,3.45,0,2.32-1.45,3.45-3.94,3.45h-2.71ZM283.53,87h1.58V69.37h-1.58Zm5.83,0h1.58V71.64h0L297.71,87h2.12V69.37h-1.58V84.7h0l-6.73-15.33h-2.12ZM313,79.33v.37c0,4.12-1.31,6.24-3.67,6.24s-4-2.07-4-7.76,1.53-7.77,4-7.77c2.32,0,3.47,1.78,3.47,3.9h1.58c-.2-3-1.7-5.23-5.05-5.23-3.6,0-5.62,2.79-5.62,9.1s2,9.1,5.62,9.1a4.13,4.13,0,0,0,3.87-3.2h0V87h1.23V78h-5.64v1.33Z" transform="translate(0 0)" style="fill:#121313"/><path id="Fill-11" d="M119.59,60.29h4.24c5.12,0,6.38-3.06,6.38-8.8s-1.26-8.8-6.38-8.8h-4.24ZM121.16,44h2.56c3.45,0,4.9,1.73,4.9,7.49S127.18,59,123.73,59h-2.56Zm13,16.27h8.94V59h-7.37v-7.2h6.68V50.43h-6.68V44h7.14V42.69h-8.72Zm12.06-4.93c0,3.7,1.8,5.23,5,5.23s5-1.53,5-5.23V42.69h-1.58V55.33c0,2.64-1.13,3.92-3.45,3.92s-3.45-1.28-3.45-3.92V42.69H146.2Zm17.6,4.93h1.58V44h4.53V42.69H159.27V44h4.53ZM182.15,47.2c0-3.13-1.5-4.81-4.78-4.81-3.06,0-4.85,1.9-4.85,4.66,0,6.39,8.53,3.4,8.53,8.63,0,2.47-1.58,3.57-3.79,3.57s-3.5-1.5-3.5-3.75v-.67h-1.58v.52c0,3.45,1.82,5.23,5.12,5.23s5.32-1.75,5.32-5.15c0-6.19-8.53-3.3-8.53-8.55a3.06,3.06,0,0,1,3.33-3.16c2.14,0,3.15,1.31,3.15,3.48Zm13,7.12c-.17,3-1.43,4.93-3.65,4.93-2.51,0-4-2.07-4-7.76s1.53-7.77,4-7.77c2.27,0,3.47,1.7,3.47,4.09h1.58c0-2.88-1.48-5.42-5.05-5.42s-5.62,2.79-5.62,9.1,2,9.1,5.62,9.1c3.15,0,5-2.24,5.22-6.26Zm13.54,6h1.58V42.69h-1.58v7.5h-6.87v-7.5h-1.58v17.6h1.58V51.51h6.87Zm5.82,0h8.94V59h-7.37v-7.2h6.68V50.43h-6.68V44h7.14V42.69h-8.72Zm12.3,0h1.58v-8h3c2.83,0,3.4,1,3.5,4.09l0,1.48a5.31,5.31,0,0,0,.47,2.47h1.85a3.87,3.87,0,0,1-.74-2.59l0-1.92c-.07-2.71-.81-4-3-4.17v0c2.34-.44,3.18-2.34,3.18-4.46,0-2.74-1.63-4.41-4.56-4.41h-5.25ZM228.36,44h2.88c2.86,0,3.77,1.31,3.77,3.45,0,2.32-1.45,3.45-3.94,3.45h-2.71Z" transform="translate(0 0)" style="fill:#121313"/><path id="Fill-13" d="M119.61,33.61h7.83c6.14,0,9-3.43,9-8.83,0-4.44-2.07-8.78-7.93-8.78h-8.89ZM125,20.52h1.72A3.89,3.89,0,0,1,131,24.71c0,1.65-.49,4.39-3.87,4.39H125Zm13.81,13.09H144V24h0l5.4,9.61h5.27V16h-5.12v9.42h0L144.39,16h-5.54Zm19.68,0h5.42V27.47h2.88c2.14,0,2.29,1.75,2.44,3.43a12.77,12.77,0,0,0,.44,2.71h5.42c-.49-.81-.52-2.91-.59-3.77-.2-2.19-1.11-3.82-2.59-4.39A4.52,4.52,0,0,0,174.59,21c0-3.33-2.66-5-5.74-5H158.52Zm5.42-13.41h2.54c2.07,0,2.69.64,2.69,1.75,0,1.58-1.38,1.75-2.39,1.75h-2.83Z" transform="translate(0 0)" style="fill:#121313"/></svg>