<?xml version="1.0" encoding="UTF-8" standalone="no"?>
<svg xmlns:svg="http://www.w3.org/2000/svg" xmlns="http://www.w3.org/2000/svg" version="1.1" width="427.81097" height="58.419472" id="svg3927">
  <defs id="defs3929"/>
  <g transform="translate(-136.09451,-503.15245)" id="layer1">
    <path d="m 555.34336,539.44043 0,3.23503 0.65462,4.50081 -1.45237,0 c -0.5634,0 -0.7972,0.0472 -4.36087,1.17247 -1.73433,0.51521 -3.84284,0.79719 -6.18793,0.79719 -4.78167,0 -7.59478,-0.98532 -10.31347,-3.56461 -3.14117,-2.99971 -4.87553,-7.17244 -4.87553,-11.86137 0,-4.4064 1.54608,-8.58024 4.21813,-11.43888 2.90696,-3.09563 6.51728,-4.5008 11.5333,-4.5008 3.14116,0 5.15638,0.37541 9.79991,1.92317 l 0.32808,7.12509 -0.93882,0.65627 c -2.95402,-5.85987 -5.43795,-7.78136 -10.03261,-7.78136 -6.00134,0 -10.03246,5.48348 -10.03246,13.5957 0,8.01724 4.59465,13.59612 11.20508,13.59612 4.35918,0 6.5621,-1.78155 6.5621,-5.20414 l 0,-1.92415 c 0,-3.32666 -0.8905,-4.31212 -4.49969,-5.01547 l 0,-1.12429 11.95466,0 0,0.9377 c -2.90751,0.93715 -3.56213,1.82709 -3.56213,4.87552 m -37.59804,-11.15787 c -1.40683,-1.12541 -2.06297,-1.50068 -6.04703,-1.50068 l 0,9.79839 c 1.03157,0.4208 1.45238,0.70334 2.81145,0.70334 1.03155,0 1.35963,-0.0472 2.34509,-0.32919 1.73489,-1.1715 2.57931,-2.62483 2.57931,-4.64074 0,-1.49903 -0.4708,-3.04844 -1.68882,-4.03112 m 9.1421,20.76855 c -2.24969,0 -4.21937,-0.8433 -6.23529,-2.71926 -1.73434,-1.54788 -3.04675,-3.42216 -5.39184,-7.54756 -0.75055,0.0455 -1.35795,0.0942 -1.73491,0.0942 -0.42081,0 -1.02989,-0.0488 -1.82709,-0.0942 l 0,4.96979 c 0,2.48504 0.88995,3.37499 3.843,3.75025 l 0,0.98436 -11.62587,0 0,-0.98436 c 3.04675,-0.28086 3.89003,-1.12526 3.89003,-3.75025 l 0,-13.17475 c 0,-2.86031 -0.74887,-3.79745 -3.56198,-4.54912 l 0,-0.98324 6.47047,0.37528 c 2.67205,-0.42193 3.70194,-0.51619 5.20374,-0.51619 4.35975,0 7.03125,2.11128 7.03125,5.62606 0,1.17248 -0.32808,2.48505 -0.93716,3.56199 -0.65614,1.17262 -1.40628,1.96982 -3.46925,3.70472 3.51645,4.68837 5.06266,6.56434 6.79758,8.0639 1.26632,1.12526 2.34509,1.50068 5.2047,1.96968 l 0,0.60906 c -1.78155,0.51634 -2.43769,0.60964 -3.65738,0.60964 m -39.14383,-22.64395 c -4.78112,0 -8.15665,4.17273 -8.15665,9.98595 0,6.14073 4.17272,10.87701 9.51627,10.87701 4.68907,0 8.25106,-3.89187 8.25106,-9.75174 0,-6.28235 -3.8902,-11.11122 -9.61068,-11.11122 m 0.60962,22.5973 c -7.5938,0 -13.12657,-5.06267 -13.12657,-12.04948 0,-7.17229 5.06379,-12.23663 13.17323,-12.23663 7.8312,0 13.31636,5.1114 13.31636,12.23663 0,7.12787 -5.43907,12.04948 -13.36302,12.04948 m -18.51787,0.14147 c -1.64216,0 -2.95457,-1.36059 -2.95457,-3.04843 0,-1.73433 1.40668,-3.09396 3.18824,-3.09396 1.64172,0 2.95305,1.35963 2.95305,3.04676 0,1.68784 -1.40683,3.09563 -3.18672,3.09563 m -8.33727,0.46858 c -2.15683,0 -4.45526,-0.98421 -6.51767,-2.7187 -1.59232,-1.45501 -3.28113,-3.18935 -4.92163,-5.25246 -1.17261,-1.49903 -2.53168,-3.18838 -4.07943,-5.11085 l 5.25079,-5.34354 2.01535,-2.15696 c 0.61061,-0.65615 0.79777,-1.26522 0.79777,-1.6877 0,-0.56188 -0.42083,-0.98435 -1.54678,-1.26521 l 0,-0.98547 10.03427,0 0,0.98547 c -4.26826,1.49902 -5.76727,2.43769 -9.00272,5.48349 l -3.8441,3.84729 6.32899,7.1723 c 1.17262,1.31242 2.34399,2.43783 3.51646,3.46924 1.45236,1.26535 2.20403,1.78154 4.26658,2.62596 l 0,0.65461 c -0.98434,0.18882 -1.78154,0.28253 -2.29788,0.28253 m -23.8642,-1.12527 0,-0.98602 c 3.04844,-0.28086 3.89187,-1.1236 3.89187,-3.74858 l 0,-13.73718 c 0,-2.39215 -0.70347,-3.18949 -3.23559,-3.93837 l 0,-0.98547 10.64322,0 0,0.98547 c -2.76591,0.60797 -3.51646,1.45236 -3.51646,3.93837 l 0,13.73718 c 0,2.62498 0.84441,3.46772 3.84453,3.74858 l 0,0.98602 -11.62757,0 z m -16.64135,0 0,-0.98435 c 3.23559,-0.23533 4.22091,-1.12527 4.22091,-3.75025 l 0,-13.78383 c 0,-2.67482 -0.8444,-3.47092 -3.89284,-3.89172 l 0,-0.98436 11.95673,0 0,0.98436 c -3.28376,0.32807 -4.22089,1.17136 -4.22089,3.89172 l 0,13.78383 c 0,2.71869 0.93713,3.56212 4.22089,3.75025 l 0,0.98435 -12.2848,0 z m -2.7155,-16.69134 c -1.97023,-3.37651 -2.95403,-4.31254 -6.32942,-4.31254 l -2.90696,0 0,15.3306 c 0,3.2821 1.17248,4.36086 5.15652,4.68726 l 0,0.98602 -13.92376,0 0,-0.98602 c 3.75011,-0.42191 4.87552,-1.50054 4.87552,-4.68726 l 0,-15.3306 -2.90697,0 c -3.09397,0 -4.4536,0.98435 -6.32942,4.17258 l -0.79733,-0.46898 1.31353,-6.4223 c 3.65751,0.93714 4.64186,1.02989 10.45509,1.02989 6.09519,0 7.07954,-0.0927 10.877,-1.02989 l 1.26632,6.4223 -0.75012,0.60894 z m -37.55196,16.69134 0,-0.98435 c 3.23503,-0.23533 4.2194,-1.12527 4.2194,-3.75025 l 0,-13.78383 c 0,-2.67482 -0.84289,-3.47092 -3.89132,-3.89172 l 0,-0.98436 11.95521,0 0,0.98436 c -3.28223,0.32807 -4.21937,1.17136 -4.21937,3.89172 l 0,13.78383 c 0,2.71869 0.93714,3.56212 4.21937,3.75025 l 0,0.98435 -12.28329,0 z m -3.32498,0 -19.59719,0 0,-0.98435 c 3.18837,-0.23533 4.07832,-1.07821 4.07832,-3.75025 l 0,-12.98817 c 0,-3.14074 -0.46913,-3.89019 -2.90683,-4.68738 l 0,-0.98436 10.9724,0 0,0.98436 c -3.2356,0.32807 -4.17273,1.17136 -4.17273,3.70304 l 0,13.54905 c 0,2.57931 1.26535,3.56366 4.59353,3.56366 3.46941,0 5.20374,-1.64063 6.84423,-6.46951 l 0.98546,0.28087 -0.79719,7.78304 z m -36.09862,-22.08208 c -4.78123,0 -8.15664,4.17273 -8.15664,9.98595 0,6.14073 4.17273,10.87701 9.51794,10.87701 4.68726,0 8.25037,-3.89187 8.25037,-9.75174 0,-6.28235 -3.89117,-11.11122 -9.61167,-11.11122 m 0.61062,22.5973 c -7.59478,0 -13.12756,-5.06267 -13.12756,-12.04948 0,-7.17229 5.06366,-12.23663 13.17476,-12.23663 7.83024,0 13.3147,5.1114 13.3147,12.23663 0,7.12787 -5.43892,12.04948 -13.3619,12.04948 m -26.88,-8.57913 -0.32806,-0.6578 c 4.54786,-1.07709 6.42214,-3.13964 6.42214,-6.93697 0,-2.39229 -1.03141,-4.31378 -2.95291,-5.3452 -1.35907,-0.7983 -2.53154,-1.03267 -5.39185,-1.07987 l 0,17.34915 c 0,2.29677 1.54775,3.46772 5.15652,3.74858 l 0,0.98602 -12.93955,0 0,-0.98602 c 3.09564,-0.28086 3.89283,-1.07695 3.89283,-3.8895 l 0,-13.64346 c 0,-2.57875 -0.65781,-3.2832 -3.23656,-3.56477 l 0,-0.98269 c 3.89284,-0.37639 5.43906,-0.47065 7.45483,-0.47065 7.73582,0 11.81416,2.62596 11.81416,7.59741 0,4.54633 -4.12553,7.82857 -9.89155,7.87577 m -15.34144,8.06391 -19.08085,0 -0.5634,-0.93882 15.42334,-20.01897 -0.3282,-0.46913 -5.81156,0.18813 c -3.98557,0.23546 -5.48626,1.31242 -7.45593,4.96993 l -0.98269,-0.46969 1.31075,-6.47047 18.28463,0 0.32821,0.98588 -15.42445,19.87916 0.32807,0.32807 6.04813,-0.23477 c 4.68893,-0.28253 6.28236,-1.12582 8.72004,-4.8772 l 0.98436,0.51745 -1.78045,6.61043 z M 277.42363,531.7979 c -1.96968,-3.37651 -2.95292,-4.31254 -6.32956,-4.31254 l -2.9057,0 0,15.3306 c 0,3.2821 1.17136,4.36086 5.15694,4.68726 l 0,0.98602 -13.92545,0 0,-0.98602 c 3.75026,-0.42191 4.87608,-1.50054 4.87608,-4.68726 l 0,-15.3306 -2.90737,0 c -3.09397,0 -4.4536,0.98435 -6.32956,4.17258 l -0.79554,-0.46898 1.31354,-6.4223 c 3.6564,0.93714 4.6402,1.02989 10.45341,1.02989 6.09687,0 7.07956,-0.0927 10.87688,-1.02989 l 1.26688,6.4223 -0.75055,0.60894 z m -26.44017,16.69134 -19.87805,0 0,-0.98435 c 3.14118,-0.23533 4.03278,-1.07821 4.03278,-3.75025 l 0,-13.50282 c 0,-2.95583 -0.56353,-3.70361 -3.23391,-4.17273 l 0,-0.98436 18.0965,0 0.65614,5.34354 -0.98698,0.3282 c -1.73338,-3.23502 -2.812,-3.93683 -6.28069,-4.0783 l -4.361,-0.13996 0,9.04714 3.37665,-0.13994 c 2.53043,-0.14106 3.18671,-0.75 3.89116,-3.42316 l 0.98436,0 0,8.58121 -0.98436,0 c -0.75,-2.62748 -1.54774,-3.28376 -3.89116,-3.37651 l -3.37665,-0.18812 0,6.51769 c 0,2.90681 0.56354,3.28112 4.59466,3.28112 3.79842,0 5.2991,-0.93715 7.50203,-4.64075 l 0.98435,0.28086 -1.12583,6.00149 z m -26.34421,-23.9114 -0.6563,23.25457 -1.78155,1.68783 -17.95544,-24.80245 0.32696,17.63016 c 0.0927,3.89006 0.84454,4.68615 4.87566,5.15638 l 0,0.98325 -12.61135,0 0,-0.98325 c 3.7501,-0.56187 4.3603,-1.26632 4.50177,-5.15638 l 0.65628,-15.1908 c 0,-5.29799 -0.65628,-6.42327 -4.50191,-7.7829 l 0,-0.93714 6.98694,0 17.25197,23.91084 -0.32807,-17.77011 c -0.0944,-3.79578 -0.79609,-4.59452 -4.54801,-5.20359 l 0,-0.93714 12.28384,0 0,0.93714 c -3.7036,0.60907 -4.40654,1.35963 -4.50079,5.20359" id="path64" style="fill:#000000;fill-opacity:1;fill-rule:nonzero;stroke:none"/>
    <path d="m 162.58785,508.15245 c -0.36547,0.0412 -0.73718,0.08 -1.09889,0.13736 -3.28804,0.91449 -6.88762,5.93486 -8.00123,13.42696 3.52243,-0.89714 7.54867,-1.40794 11.81299,-1.40794 2.14514,0 4.22759,0.13586 6.21554,0.37773 -2.32525,-7.41129 -5.72604,-12.41748 -8.92841,-12.53411 z m -1.92304,0.30907 c -10.11727,1.9499 -18.00369,10.15009 -19.4708,20.43232 1.74426,-2.7836 5.51363,-5.15753 10.50804,-6.69631 1.6879,-6.48209 4.95614,-11.50464 8.96276,-13.73601 z m 9.2718,0 c 4.00774,2.23082 7.24037,7.25392 8.92842,13.73601 4.99705,1.53822 8.79812,3.91119 10.5424,6.69631 -1.47088,-10.28278 -9.35244,-18.48241 -19.47082,-20.43232 z" id="path118" style="fill:#83a7dd;fill-opacity:1;fill-rule:nonzero;stroke:none"/>
    <path d="m 172.03136,522.5066 c -1.87618,-0.0407 -3.85636,0.0405 -5.94082,0.27471 -5.15495,0.57554 -9.42039,1.53358 -12.91186,2.71286 -0.0548,1.90703 0.0173,3.95305 0.30905,6.0782 0.41449,3.00437 1.01511,5.70755 1.71702,8.13859 3.40511,0.1344 7.22036,-0.013 11.22918,-0.44643 2.80415,-0.30492 5.46581,-0.71276 7.93255,-1.23624 -0.0688,-2.16901 -0.23924,-4.45394 -0.54943,-6.79932 -0.4171,-3.10948 -1.04587,-6.04349 -1.78569,-8.72237 z m 7.10839,0.78982 c 0.639,2.81068 0.99586,5.8716 0.99586,9.06577 0,1.4363 -0.0705,2.85377 -0.20603,4.22382 6.12689,-1.93368 9.93378,-4.4683 9.54653,-6.83366 -0.39268,-2.39078 -4.23762,-5.12973 -10.33636,-6.45593 z m -28.26186,3.05626 c -7.11136,2.87524 -10.12638,6.53599 -9.75257,8.61935 0.39155,2.17166 4.22197,3.75894 9.92427,4.42987 -0.38185,-2.22984 -0.58378,-4.60007 -0.58378,-7.03971 0,-2.07252 0.13493,-4.08252 0.41208,-6.00951 z" id="path122" style="fill:#568cd1;fill-opacity:1;fill-rule:nonzero;stroke:none"/>
    <path d="m 141.19401,535.83053 c 1.46602,10.28113 9.35506,18.48074 19.4708,20.43234 -4.00454,-2.2325 -7.27541,-7.25547 -8.96276,-13.73603 -4.99496,-1.53877 -8.76488,-3.9116 -10.50804,-6.69631 z m 48.21342,0 c -1.74165,2.7836 -5.5448,5.15809 -10.5424,6.69631 -1.68748,6.48111 -4.91958,11.50353 -8.92842,13.73603 10.11838,-1.95104 18.00203,-10.15121 19.47082,-20.43234 z m -15.14396,7.7952 c -2.78789,0.50987 -5.80496,0.78982 -8.96275,0.78982 -3.07922,0 -6.02951,-0.26893 -8.75672,-0.75549 3.43177,8.78026 8.43475,12.8148 11.43523,12.91186 0.33839,-0.0373 0.66069,-0.0847 0.99587,-0.13736 2.86163,-0.87102 4.78404,-5.85853 5.28837,-12.80883 z" id="path126" style="fill:#176fc1;fill-opacity:1;fill-rule:nonzero;stroke:none"/>
  </g>
</svg>