<?xml version="1.0" encoding="UTF-8" standalone="no"?>
<!-- Created with Inkscape (http://www.inkscape.org/) -->

<svg
   xmlns:dc="http://purl.org/dc/elements/1.1/"
   xmlns:cc="http://creativecommons.org/ns#"
   xmlns:rdf="http://www.w3.org/1999/02/22-rdf-syntax-ns#"
   xmlns:svg="http://www.w3.org/2000/svg"
   xmlns="http://www.w3.org/2000/svg"
   version="1.1"
   width="130.51875"
   height="66.682121"
   id="svg2"
   xml:space="preserve"><metadata
     id="metadata8"><rdf:RDF><cc:Work
         rdf:about=""><dc:format>image/svg+xml</dc:format><dc:type
           rdf:resource="http://purl.org/dc/dcmitype/StillImage" /><dc:title></dc:title></cc:Work></rdf:RDF></metadata><defs
     id="defs6"><clipPath
       id="clipPath24"><path
         d="m 25.78,38.05 83.057,0 0,25.343 -83.057,0 0,-25.343 z"
         id="path26" /></clipPath><clipPath
       id="clipPath116"><path
         d="m 465.586,38.072 104.415,0 0,53.346 -104.415,0 0,-53.346 z"
         id="path118" /></clipPath><clipPath
       id="clipPath188"><path
         d="m 245.713,169.695 301.039,0 0,237.5 -301.039,0 0,-237.5 z"
         id="path190" /></clipPath><clipPath
       id="clipPath200"><path
         d="m 51.024,219.695 192.189,0 0,187.501 -192.189,0 0,-187.501 z"
         id="path202" /></clipPath><clipPath
       id="clipPath212"><path
         d="m 354.563,409.695 217.701,0 0,200 -217.701,0 0,-200 z"
         id="path214" /></clipPath><clipPath
       id="clipPath224"><path
         d="m 25.511,409.695 326.551,0 0,262.499 -326.551,0 0,-262.499 z"
         id="path226" /></clipPath><clipPath
       id="clipPath116-8"><path
         d="m 465.586,38.072 104.415,0 0,53.346 -104.415,0 0,-53.346 z"
         id="path118-1" /></clipPath></defs><g
     transform="matrix(1.25,0,0,-1.25,-912.20306,28.611356)"
     id="g10"><g
       transform="translate(264.17645,-68.528615)"
       id="g112"><g
         clip-path="url(#clipPath116-8)"
         id="g114"><g
           transform="translate(534.201,75.5971)"
           id="g120"><path
             d="m 0,0 c 2.779,0 4.674,-1.453 4.674,-5.537 0,-2.407 -0.278,-6.31 -4.633,-6.31 -1.657,0 -5.167,0 -5.167,5.946 C -5.126,-1.544 -3.273,0 0,0 m 14.538,-5.455 c 0,10.25 -3.833,13.681 -14.265,13.681 -11.019,0 -15.276,-3.177 -15.276,-14.442 0,-11.69 6.986,-14.274 15.074,-14.274 8.328,0 14.467,2.331 14.467,15.035"
             id="path122"
             style="fill:#ec6502;fill-opacity:1;fill-rule:nonzero;stroke:none" /></g><g
           transform="translate(466.7889,38.3628)"
           id="g124"><path
             d="m 0,0 3.295,0 0,7.93 1.979,0 0,2.133 -2.15,0 0,0.445 c 0,0.912 0.637,1.009 1.392,1.009 0.292,0 0.455,-0.036 0.766,-0.074 l 0.261,2.245 C 5,13.786 4.343,13.843 3.819,13.843 1.008,13.843 0,12.951 0,10.063 l -1.203,0 0,-2.133 L 0,7.93 0,0 z"
             id="path126"
             style="fill:#000000;fill-opacity:1;fill-rule:nonzero;stroke:none" /></g><g
           transform="translate(483.2584,38.3628)"
           id="g128"><path
             d="m 0,0 0,10.063 -3.296,0 0,-5.391 c 0,-1.784 -1.086,-2.248 -1.802,-2.248 -1.047,0 -1.63,0.464 -1.63,1.802 l 0,5.837 -3.296,0 0,-6.05 c 0,-2.638 0.834,-4.304 3.723,-4.304 1.163,0 2.443,0.639 3.064,1.666 l 0.038,0 L -3.199,0 0,0 z"
             id="path130"
             style="fill:#000000;fill-opacity:1;fill-rule:nonzero;stroke:none" /></g><path
           d="m 481.82,52.205 -2.909,0 0,-2.423 2.909,0 0,2.423 z"
           id="path132"
           style="fill:#000000;fill-opacity:1;fill-rule:nonzero;stroke:none" /><path
           d="m 477.485,52.205 -2.909,0 0,-2.423 2.909,0 0,2.423 z"
           id="path134"
           style="fill:#000000;fill-opacity:1;fill-rule:nonzero;stroke:none" /><g
           transform="translate(485.2609,48.4258)"
           id="g136"><path
             d="m 0,0 0,-10.063 3.297,0 0,4.982 c 0,1.26 1.161,2.299 2.246,2.299 0.446,0 0.818,-0.045 1.02,-0.093 l 0.376,3.18 C 6.687,0.363 6.233,0.331 5.98,0.331 4.81,0.331 3.723,-0.486 3.239,-1.766 L 3.2,-1.766 3.2,0 0,0 z"
             id="path138"
             style="fill:#000000;fill-opacity:1;fill-rule:nonzero;stroke:none" /></g><g
           transform="translate(501.8706,46.1948)"
           id="g140"><path
             d="m 0,0 c 1.436,0 1.96,-1.338 1.96,-2.791 0,-1.28 -0.35,-2.811 -1.96,-2.811 -1.511,0 -2.186,1.531 -2.186,2.906 C -2.186,-1.415 -1.511,0 0,0 m -0.743,-8.123 c 1.161,0 2.131,0.504 2.771,1.453 l 0.038,0 0,-1.162 3.142,0 0,13.842 -3.297,0 0,-4.866 -0.036,0 C 1.194,2.055 0.244,2.52 -0.997,2.52 c -2.849,0 -4.245,-2.482 -4.245,-5.1 0,-2.828 1.337,-5.543 4.499,-5.543"
             id="path142"
             style="fill:#000000;fill-opacity:1;fill-rule:nonzero;stroke:none" /></g><g
           transform="translate(512.3705,48.4258)"
           id="g144"><path
             d="m 0,0 -3.294,0 0,-4.535 0,-5.528 3.294,0 L 0,0 z"
             id="path146"
             style="fill:#000000;fill-opacity:1;fill-rule:nonzero;stroke:none" /></g><g
           transform="translate(512.3698,52.2055)"
           id="g148"><path
             d="m 0,0 -3.294,0 0,-1.197 0,-1.324 3.294,0 L 0,0 z"
             id="path150"
             style="fill:#000000;fill-opacity:1;fill-rule:nonzero;stroke:none" /></g><g
           transform="translate(519.2747,46.4857)"
           id="g152"><path
             d="m 0,0 c 1.105,0 1.899,-0.931 1.956,-2.054 l -4.09,0 C -1.94,-0.833 -1.164,0 0,0 m -5.429,-3.064 c 0,-3.372 2.229,-5.349 5.506,-5.349 2.248,0 4.401,1.006 5.003,3.332 l -3.083,0 C 1.687,-5.816 0.91,-6.185 0.115,-6.185 c -1.396,0 -2.19,0.91 -2.249,2.288 l 7.387,0 C 5.409,-0.484 3.605,2.23 0,2.23 c -2.966,0 -5.429,-2.21 -5.429,-5.294"
             id="path154"
             style="fill:#000000;fill-opacity:1;fill-rule:nonzero;stroke:none" /></g><g
           transform="translate(535.758,38.3628)"
           id="g156"><path
             d="m 0,0 1.902,9.54 0.037,0 1.9,-9.54 3.607,0 3.82,13.842 -3.605,0 -1.96,-10.12 -0.04,0 -2.034,10.12 -3.395,0 -2.035,-10.12 -0.037,0 -1.96,10.12 -3.607,0 L -3.665,0 0,0 z"
             id="path158"
             style="fill:#000000;fill-opacity:1;fill-rule:nonzero;stroke:none" /></g><g
           transform="translate(551.8143,46.4857)"
           id="g160"><path
             d="m 0,0 c 1.104,0 1.899,-0.931 1.958,-2.054 l -4.091,0 C -1.941,-0.833 -1.162,0 0,0 m 0.076,-8.413 c 2.249,0 4.403,1.006 5.004,3.332 l -3.083,0 C 1.686,-5.816 0.909,-6.185 0.115,-6.185 c -1.396,0 -2.19,0.91 -2.248,2.288 l 7.387,0 C 5.409,-0.484 3.606,2.23 0,2.23 c -2.967,0 -5.43,-2.21 -5.43,-5.294 0,-3.372 2.23,-5.349 5.506,-5.349"
             id="path162"
             style="fill:#000000;fill-opacity:1;fill-rule:nonzero;stroke:none" /></g><g
           transform="translate(558.6176,38.3635)"
           id="g164"><path
             d="m 0,0 3.295,0 0,13.842 L 0,13.842 0,6.697 0,0 z"
             id="path166"
             style="fill:#000000;fill-opacity:1;fill-rule:nonzero;stroke:none" /></g><g
           transform="translate(570.0009,46.2923)"
           id="g168"><path
             d="m 0,0 0,2.134 -2.035,0 0,3.043 -1.886,0 c 0,0 -0.547,-2.482 -3.077,-3.043 l 0,-2.134 1.666,0 0,-4.479 c 0,-2.735 0.717,-3.546 3.529,-3.546 0.601,0 1.202,0.076 1.803,0.095 l 0,2.424 c -0.289,0 -0.58,-0.04 -0.853,-0.04 -0.716,0 -1.182,0.175 -1.182,0.971 L -2.035,0 0,0 z"
             id="path170"
             style="fill:#000000;fill-opacity:1;fill-rule:nonzero;stroke:none" /></g><g
           transform="translate(483.4031,63.8697)"
           id="g172"><path
             d="m 0,0 -5.872,0 0,7.121 5.623,0 C 2.335,7.121 3.578,5.89 3.578,3.64 3.578,0.695 2.287,0 0,0 m -5.872,19.777 5.148,0 c 2.236,0 3.109,-0.728 3.109,-2.742 0,-2.577 -1.442,-3.304 -3.728,-3.304 l -4.529,0 0,6.046 z m 20.03,-16.93 c 0,5.218 -2.244,8.142 -5.81,8.847 3.206,0.915 4.373,3.379 4.373,6.957 0,4.923 -1.573,8.897 -10.139,8.897 l -19.388,0 0,-35.486 21.27,0 c 6.262,0 9.694,3.678 9.694,10.785"
             id="path174"
             style="fill:#000000;fill-opacity:1;fill-rule:nonzero;stroke:none" /></g><g
           transform="translate(510.1429,63.6046)"
           id="g176"><path
             d="M 0,0 C 0,7.306 1.29,8.476 6.757,8.476 L 7.97,18.767 C 5.007,19.159 0.616,18.636 -1.179,13.866 l -0.06,4.126 -8.601,0 0,-25.794 9.84,0 L 0,0 z"
             id="path178"
             style="fill:#000000;fill-opacity:1;fill-rule:nonzero;stroke:none" /></g><g
           transform="translate(553.9804,66.2904)"
           id="g180"><path
             d="m 0,0 c 0,-9.547 5.005,-10.912 9.181,-10.912 2.085,0 5.254,0.125 6.84,0.255 l 0,7.594 -2.767,0.011 c -2.484,0 -3.03,1.212 -3.03,5.154 l 0,5.521 5.797,0 0,7.812 -5.797,0 0,7.852 -6.978,0 C 2.875,19.574 1.557,15.435 -3.668,15.435 l 0,-7.812 L 0,7.623 0,0 z"
             id="path182"
             style="fill:#000000;fill-opacity:1;fill-rule:nonzero;stroke:none" /></g></g></g></g></svg>