<?xml version="1.0" encoding="UTF-8"?>
<!DOCTYPE svg PUBLIC "-//W3C//DTD SVG 1.1//EN" "http://www.w3.org/Graphics/SVG/1.1/DTD/svg11.dtd">
<svg version="1.2" width="285.4mm" height="45mm" viewBox="0 0 28540 4500" preserveAspectRatio="xMidYMid" fill-rule="evenodd" stroke-width="28.222" stroke-linejoin="round" xmlns="http://www.w3.org/2000/svg" xmlns:ooo="http://xml.openoffice.org/svg/export" xmlns:xlink="http://www.w3.org/1999/xlink" xmlns:presentation="http://sun.com/xmlns/staroffice/presentation" xmlns:smil="http://www.w3.org/2001/SMIL20/" xmlns:anim="urn:oasis:names:tc:opendocument:xmlns:animation:1.0" xml:space="preserve">
 <defs class="ClipPathGroup">
  <clipPath id="presentation_clip_path" clipPathUnits="userSpaceOnUse">
   <rect x="0" y="0" width="28540" height="4500"/>
  </clipPath>
  <clipPath id="presentation_clip_path_shrink" clipPathUnits="userSpaceOnUse">
   <rect x="28" y="4" width="28483" height="4491"/>
  </clipPath>
 </defs>
 <defs class="TextShapeIndex">
  <g ooo:slide="id1" ooo:id-list="id3"/>
 </defs>
 <defs class="EmbeddedBulletChars">
  <g id="bullet-char-template-57356" transform="scale(0.00048828125,-0.00048828125)">
   <path d="M 580,1141 L 1163,571 580,0 -4,571 580,1141 Z"/>
  </g>
  <g id="bullet-char-template-57354" transform="scale(0.00048828125,-0.00048828125)">
   <path d="M 8,1128 L 1137,1128 1137,0 8,0 8,1128 Z"/>
  </g>
  <g id="bullet-char-template-10146" transform="scale(0.00048828125,-0.00048828125)">
   <path d="M 174,0 L 602,739 174,1481 1456,739 174,0 Z M 1358,739 L 309,1346 659,739 1358,739 Z"/>
  </g>
  <g id="bullet-char-template-10132" transform="scale(0.00048828125,-0.00048828125)">
   <path d="M 2015,739 L 1276,0 717,0 1260,543 174,543 174,936 1260,936 717,1481 1274,1481 2015,739 Z"/>
  </g>
  <g id="bullet-char-template-10007" transform="scale(0.00048828125,-0.00048828125)">
   <path d="M 0,-2 C -7,14 -16,27 -25,37 L 356,567 C 262,823 215,952 215,954 215,979 228,992 255,992 264,992 276,990 289,987 310,991 331,999 354,1012 L 381,999 492,748 772,1049 836,1024 860,1049 C 881,1039 901,1025 922,1006 886,937 835,863 770,784 769,783 710,716 594,584 L 774,223 C 774,196 753,168 711,139 L 727,119 C 717,90 699,76 672,76 641,76 570,178 457,381 L 164,-76 C 142,-110 111,-127 72,-127 30,-127 9,-110 8,-76 1,-67 -2,-52 -2,-32 -2,-23 -1,-13 0,-2 Z"/>
  </g>
  <g id="bullet-char-template-10004" transform="scale(0.00048828125,-0.00048828125)">
   <path d="M 285,-33 C 182,-33 111,30 74,156 52,228 41,333 41,471 41,549 55,616 82,672 116,743 169,778 240,778 293,778 328,747 346,684 L 369,508 C 377,444 397,411 428,410 L 1163,1116 C 1174,1127 1196,1133 1229,1133 1271,1133 1292,1118 1292,1087 L 1292,965 C 1292,929 1282,901 1262,881 L 442,47 C 390,-6 338,-33 285,-33 Z"/>
  </g>
  <g id="bullet-char-template-9679" transform="scale(0.00048828125,-0.00048828125)">
   <path d="M 813,0 C 632,0 489,54 383,161 276,268 223,411 223,592 223,773 276,916 383,1023 489,1130 632,1184 813,1184 992,1184 1136,1130 1245,1023 1353,916 1407,772 1407,592 1407,412 1353,268 1245,161 1136,54 992,0 813,0 Z"/>
  </g>
  <g id="bullet-char-template-8226" transform="scale(0.00048828125,-0.00048828125)">
   <path d="M 346,457 C 273,457 209,483 155,535 101,586 74,649 74,723 74,796 101,859 155,911 209,963 273,989 346,989 419,989 480,963 531,910 582,859 608,796 608,723 608,648 583,586 532,535 482,483 420,457 346,457 Z"/>
  </g>
  <g id="bullet-char-template-8211" transform="scale(0.00048828125,-0.00048828125)">
   <path d="M -4,459 L 1135,459 1135,606 -4,606 -4,459 Z"/>
  </g>
  <g id="bullet-char-template-61548" transform="scale(0.00048828125,-0.00048828125)">
   <path d="M 173,740 C 173,903 231,1043 346,1159 462,1274 601,1332 765,1332 928,1332 1067,1274 1183,1159 1299,1043 1357,903 1357,740 1357,577 1299,437 1183,322 1067,206 928,148 765,148 601,148 462,206 346,322 231,437 173,577 173,740 Z"/>
  </g>
 </defs>
 <g>
  <g id="id2" class="Master_Slide">
   <g id="bg-id2" class="Background"/>
   <g id="bo-id2" class="BackgroundObjects"/>
  </g>
 </g>
 <g class="SlideGroup">
  <g>
   <g id="container-id1">
    <g id="id1" class="Slide" clip-path="url(#presentation_clip_path)">
     <g class="Page">
      <g class="Graphic">
       <g id="id3">
        <rect class="BoundingBox" stroke="none" fill="none" x="-1776" y="-1696" width="32299" height="8001"/>
        <path fill="rgb(118,216,212)" stroke="none" d="M 4196,2325 C 4196,3428 3303,4321 2200,4321 1098,4321 204,3428 204,2325 204,1223 1098,329 2200,329 3303,329 4196,1223 4196,2325 Z"/>
        <path fill="rgb(98,213,79)" stroke="none" d="M 5527,2325 C 5527,3428 4633,4321 3531,4321 2429,4321 1535,3428 1535,2325 1535,1223 2429,329 3531,329 4633,329 5527,1223 5527,2325 Z"/>
        <defs>
         <clipPath id="clip_path_1" clipPathUnits="userSpaceOnUse">
          <path d="M 5527,2325 C 5527,3428 4633,4321 3531,4321 2429,4321 1535,3428 1535,2325 1535,1223 2429,329 3531,329 4633,329 5527,1223 5527,2325 Z"/>
         </clipPath>
        </defs>
        <g clip-path="url(#clip_path_1)">
         <path fill="rgb(98,213,79)" stroke="none" d="M 5554,4321 L 5554,329 1522,329 1522,4321 5554,4321 Z"/>
        </g>
        <defs>
         <clipPath id="clip_path_2" clipPathUnits="userSpaceOnUse">
          <path d="M 5527,2325 C 5527,3428 4633,4321 3531,4321 2429,4321 1535,3428 1535,2325 1535,1223 2429,329 3531,329 4633,329 5527,1223 5527,2325 Z"/>
         </clipPath>
        </defs>
        <g clip-path="url(#clip_path_2)">
         <path fill="rgb(98,213,79)" stroke="none" d="M 5727,130 L 5727,4521 1335,4521 1335,130 5727,130 Z"/>
        </g>
        <path fill="rgb(87,176,80)" stroke="none" d="M 2866,4207 C 3641,3933 4196,3194 4196,2325 4196,1456 3641,717 2866,443 2091,717 1535,1456 1535,2325 1535,3194 2091,3933 2866,4207 Z"/>
        <defs>
         <clipPath id="clip_path_3" clipPathUnits="userSpaceOnUse">
          <path d="M 6858,2972 L 6858,1678 7373,1678 C 7520,1678 7635,1715 7716,1788 7798,1863 7838,1963 7838,2090 7838,2174 7818,2247 7779,2309 7739,2372 7683,2419 7611,2451 L 7886,2972 7585,2972 7339,2496 7131,2496 7131,2972 6858,2972 Z M 7131,2290 L 7345,2290 C 7415,2290 7468,2273 7503,2238 7538,2203 7556,2156 7556,2096 7556,2035 7538,1988 7503,1953 7468,1919 7417,1901 7352,1901 L 7131,1901 7131,2290 Z M 8366,2972 L 8366,1678 9235,1678 9235,1903 8639,1903 8639,2212 9191,2212 9191,2437 8639,2437 8639,2747 9238,2747 9238,2972 8366,2972 Z M 10486,2050 C 10481,1999 10459,1959 10420,1931 10382,1903 10330,1889 10265,1889 10198,1889 10147,1902 10111,1930 10076,1957 10058,1992 10058,2033 10057,2080 10077,2115 10117,2139 10158,2163 10206,2181 10262,2194 L 10378,2222 C 10453,2239 10519,2263 10577,2295 10635,2327 10681,2368 10714,2419 10748,2469 10764,2530 10765,2602 10764,2721 10720,2815 10632,2885 10544,2955 10421,2991 10264,2991 10107,2991 9982,2955 9889,2883 9796,2811 9747,2706 9744,2566 L 10008,2566 C 10013,2631 10038,2679 10085,2712 10131,2745 10190,2761 10261,2761 10330,2761 10385,2746 10427,2717 10468,2687 10489,2649 10489,2602 10489,2558 10470,2524 10432,2501 10394,2477 10340,2457 10270,2440 L 10130,2405 C 10021,2378 9935,2337 9872,2280 9809,2223 9778,2147 9778,2052 9778,1973 9798,1905 9841,1846 9883,1787 9941,1741 10015,1709 10088,1676 10173,1660 10267,1660 10363,1660 10446,1676 10518,1709 10590,1742 10645,1788 10685,1847 10725,1905 10746,1973 10747,2050 L 10486,2050 Z M 11280,2972 L 11280,1678 12150,1678 12150,1903 11553,1903 11553,2212 12105,2212 12105,2437 11553,2437 11553,2747 12152,2747 12152,2972 11280,2972 Z M 12651,1903 L 12651,1678 13711,1678 13711,1903 13316,1903 13316,2972 13046,2972 13046,1903 12651,1903 Z "/>
         </clipPath>
        </defs>
        <g clip-path="url(#clip_path_3)">
         <path fill="rgb(0,60,29)" stroke="none" d="M 13910,1460 L 13910,3190 6658,3190 6658,1460 13910,1460 Z"/>
        </g>
        <path fill="rgb(0,60,29)" stroke="none" d="M 28026,2675 C 28026,2790 27905,2856 27789,2856 27625,2856 27528,2738 27528,2557 L 27528,2402 C 27528,2221 27625,2102 27789,2102 27905,2102 28026,2169 28026,2284 L 28026,2675 Z M 28185,2819 L 28185,1560 27891,1616 27891,1680 28026,1705 28026,2154 28019,2154 C 27977,2066 27889,1995 27742,1995 27508,1995 27354,2165 27354,2479 27354,2794 27508,2964 27742,2964 27889,2964 27979,2894 28019,2806 L 28026,2806 28026,2964 28320,2908 28320,2844 28185,2819 Z"/>
        <path fill="rgb(0,60,29)" stroke="none" d="M 26984,2582 C 26984,2745 26907,2871 26728,2871 26548,2871 26471,2745 26471,2582 L 26471,2377 C 26471,2214 26548,2088 26728,2088 26907,2088 26984,2214 26984,2377 L 26984,2582 Z M 26728,1995 C 26465,1995 26289,2187 26289,2479 26289,2772 26465,2964 26728,2964 26990,2964 27166,2772 27166,2479 27166,2187 26990,1995 26728,1995 Z"/>
        <path fill="rgb(0,60,29)" stroke="none" d="M 25928,2582 C 25928,2745 25851,2871 25672,2871 25492,2871 25415,2745 25415,2582 L 25415,2377 C 25415,2214 25492,2088 25672,2088 25851,2088 25928,2214 25928,2377 L 25928,2582 Z M 25672,1995 C 25410,1995 25234,2187 25234,2479 25234,2772 25410,2964 25672,2964 25934,2964 26110,2772 26110,2479 26110,2187 25934,1995 25672,1995 Z"/>
        <path fill="rgb(0,60,29)" stroke="none" d="M 24456,2964 C 24137,2964 23923,2718 23923,2316 23923,1899 24137,1668 24472,1668 24668,1668 24772,1729 24803,1801 L 24812,1801 24812,1689 24950,1689 24950,2056 24812,2056 24812,1971 C 24812,1838 24692,1768 24496,1768 24230,1768 24112,1941 24112,2192 L 24112,2436 C 24112,2686 24257,2853 24476,2853 24661,2853 24797,2759 24797,2589 L 24797,2422 24573,2422 24573,2336 25081,2336 25081,2422 24966,2422 24966,2943 24903,2943 24808,2772 24801,2772 C 24763,2862 24652,2964 24456,2964 Z"/>
        <path fill="rgb(0,60,29)" stroke="none" d="M 22684,2943 L 22684,2856 22819,2856 22819,2140 22684,2115 22684,2050 22973,1995 22973,2154 22982,2154 C 23018,2079 23083,1995 23214,1995 23323,1995 23399,2048 23399,2149 23399,2224 23356,2269 23295,2269 23226,2269 23182,2228 23182,2172 23182,2120 23207,2088 23235,2084 L 23235,2081 C 23225,2079 23212,2077 23189,2077 23088,2077 22979,2185 22979,2282 L 22979,2856 23149,2856 23149,2943 22684,2943 Z"/>
        <path fill="rgb(0,60,29)" stroke="none" d="M 22332,2582 C 22332,2745 22255,2871 22075,2871 21896,2871 21819,2745 21819,2582 L 21819,2377 C 21819,2214 21896,2088 22075,2088 22255,2088 22332,2214 22332,2377 L 22332,2582 Z M 22075,1995 C 21813,1995 21637,2187 21637,2479 21637,2772 21813,2964 22075,2964 22338,2964 22514,2772 22514,2479 22514,2187 22338,1995 22075,1995 Z"/>
        <path fill="rgb(0,60,29)" stroke="none" d="M 19794,2943 L 19794,2856 19928,2856 19928,1705 19794,1680 19794,1616 20088,1560 20088,2856 20223,2856 20223,2943 19794,2943 Z"/>
        <path fill="rgb(0,60,29)" stroke="none" d="M 19373,2686 C 19373,2804 19280,2860 19167,2860 19056,2860 18989,2813 18989,2724 L 18989,2688 C 18989,2575 19052,2515 19259,2515 L 19373,2515 19373,2686 Z M 19533,2860 L 19533,2282 C 19533,2100 19415,1995 19217,1995 18991,1995 18864,2099 18864,2205 18864,2277 18907,2314 18968,2314 19032,2314 19074,2277 19074,2210 19074,2156 19041,2129 19012,2113 L 19012,2110 C 19047,2092 19104,2081 19160,2081 19302,2081 19373,2162 19373,2305 L 19373,2438 19242,2438 C 18930,2438 18819,2533 18819,2713 18819,2867 18925,2964 19099,2964 19266,2964 19338,2889 19373,2808 L 19383,2808 19383,2813 C 19383,2905 19438,2964 19537,2964 19594,2964 19641,2948 19668,2928 L 19668,2860 19533,2860 Z"/>
        <path fill="rgb(0,60,29)" stroke="none" d="M 18454,2953 C 18318,2953 18275,2905 18275,2774 L 18275,2110 18154,2110 18154,2016 18169,2016 C 18273,2016 18287,1989 18303,1935 L 18348,1775 18434,1775 18434,2016 18677,2016 18677,2110 18434,2110 18434,2849 18677,2849 18677,2912 C 18636,2935 18540,2953 18454,2953 Z"/>
        <path fill="rgb(0,60,29)" stroke="none" d="M 17585,2943 L 17585,2856 17720,2856 17720,2140 17585,2115 17585,2050 17880,1995 17880,2856 18014,2856 18014,2943 17585,2943 Z"/>
        <path fill="rgb(0,60,29)" stroke="none" d="M 17799,1808 C 17734,1808 17697,1763 17697,1709 L 17697,1698 C 17697,1645 17734,1600 17799,1600 17864,1600 17901,1645 17901,1698 L 17901,1709 C 17901,1763 17864,1808 17799,1808 Z"/>
        <path fill="rgb(0,60,29)" stroke="none" d="M 17023,3230 L 16937,3230 C 16799,3230 16709,3185 16709,3092 16709,3027 16739,2971 16815,2935 L 17102,2935 C 17257,2935 17312,2982 17312,3070 17312,3167 17203,3230 17023,3230 L 17023,3230 Z M 16784,2334 L 16784,2266 C 16784,2147 16851,2075 16980,2075 17108,2075 17174,2147 17174,2266 L 17174,2334 C 17174,2452 17108,2524 16978,2524 16851,2524 16784,2452 16784,2334 L 16784,2334 Z M 17127,2781 L 16912,2781 C 16806,2781 16761,2763 16761,2702 16761,2648 16820,2607 16883,2596 16914,2601 16944,2605 16978,2605 17188,2605 17345,2488 17345,2300 17345,2208 17310,2153 17282,2117 L 17282,2036 17287,2036 C 17307,2059 17337,2070 17368,2070 17429,2070 17465,2034 17465,1982 17465,1926 17424,1892 17368,1892 17298,1892 17233,1928 17231,2070 17174,2029 17093,1995 16978,1995 16768,1995 16614,2111 16614,2300 16614,2431 16688,2526 16802,2573 L 16802,2582 C 16720,2605 16646,2659 16646,2754 16646,2833 16688,2883 16763,2910 L 16763,2917 C 16668,2943 16569,3005 16569,3101 16569,3235 16675,3323 16971,3323 17282,3323 17445,3205 17445,3030 17445,2871 17341,2781 17127,2781 Z"/>
        <path fill="rgb(0,60,29)" stroke="none" d="M 16000,2943 L 16000,2856 16134,2856 16134,2140 16000,2115 16000,2050 16294,1995 16294,2856 16429,2856 16429,2943 16000,2943 Z"/>
        <path fill="rgb(0,60,29)" stroke="none" d="M 16214,1808 C 16149,1808 16111,1763 16111,1709 L 16111,1698 C 16111,1645 16149,1600 16214,1600 16278,1600 16316,1645 16316,1698 L 16316,1709 C 16316,1763 16278,1808 16214,1808 Z"/>
        <path fill="rgb(0,60,29)" stroke="none" d="M 15632,2427 C 15632,2679 15476,2849 15231,2849 L 15014,2849 15014,1783 15231,1783 C 15476,1783 15632,1953 15632,2205 L 15632,2427 Z M 15249,1689 L 14709,1689 14709,1775 14845,1775 14845,2856 14709,2856 14709,2943 15249,2943 C 15587,2943 15820,2736 15820,2316 15820,1896 15587,1689 15249,1689 Z"/>
        <path fill="rgb(0,60,29)" stroke="none" d="M 21142,2860 L 21142,2103 21005,2103 21005,2017 21142,2017 21142,1871 C 21142,1828 21149,1789 21164,1753 21179,1717 21200,1686 21226,1661 21253,1635 21284,1615 21321,1601 21357,1586 21397,1579 21440,1579 21507,1579 21560,1591 21599,1616 21638,1641 21657,1677 21657,1723 21657,1754 21649,1779 21631,1797 21613,1816 21589,1825 21561,1825 21534,1825 21512,1817 21495,1800 21478,1783 21470,1763 21470,1739 21470,1697 21487,1669 21520,1656 L 21520,1653 C 21512,1650 21502,1648 21491,1647 21479,1646 21467,1645 21453,1645 21402,1645 21362,1664 21335,1700 21307,1736 21294,1786 21294,1851 L 21294,2017 21502,2017 21502,2103 21294,2103 21294,2860 21468,2860 21468,2943 21005,2943 21005,2860 21142,2860 Z"/>
       </g>
      </g>
     </g>
    </g>
   </g>
  </g>
 </g>
</svg>