<svg xmlns="http://www.w3.org/2000/svg" width="250.2" height="80.1" viewBox="0 0 250.2 80.1" class="b-header__logo"><style>.st0{fill:#1D1D1B;} .st1{fill:#76B82A;} .st2{fill:none;stroke:#76B82A;stroke-width:0.2835;stroke-miterlimit:3.8637;} .st3{fill:#1D1D1B;stroke:#1D1D1B;stroke-width:0.2;stroke-miterlimit:3.8637;} .st4{fill-rule:evenodd;clip-rule:evenodd;fill:#1D1D1B;}</style><path class="st0" d="M198 26.7h2.1c5.9 0 9.5 3.5 8.5 9.8-1.1 6.9-6.2 9.8-11.7 9.8h-2.1l3.2-19.6zM92.3 26h.7c2.5 0 5.3.2 4.8 3.4-.5 3-3.1 3.4-5.5 3.4h-1l1-6.8zm-2.1 13.6h.9c3 0 7.6-.4 6.9 3.8-.6 3.9-5.2 3.7-7.9 3.7H89l1.2-7.5zm54.2 14.5h9.1l3.4-21.5 13.4 21.5h9.1L185 19h-9.1l-3.4 21.5L159.1 19H150l-5.6 35.1zM136 19l-3 18.5c-.7 4.6-1.8 9.6-7.7 9.6s-5.4-5-4.7-9.6l2.9-18.5h-9.1l-3.1 19.8c-.7 4.5-1.2 9 1.7 12.4 2.5 2.9 6.9 3.9 11 3.9s8.9-1 12.3-3.9c4-3.4 4.9-7.9 5.6-12.4L145 19h-9zm48.5 35.1h13c9.7 0 19.1-7.7 20.6-17.6 1.6-9.9-5.3-17.6-15.1-17.6h-13l-5.5 35.2zm-91.7 0c6.4 0 13.1-2.4 14.3-9.8.8-4.9-.8-8.3-5.8-9 3.1-1.5 4.5-4.1 5-7.3 1.1-6.7-2.7-9.1-9-9.1h-13L78.7 54h14.1v.1z"></path><path class="st1" d="M31 27.8c0-8.5 6.9-15.4 15.4-15.4s15.4 6.9 15.4 15.4-6.9 15.4-15.4 15.4C37.9 43.1 31 36.3 31 27.8z"></path><path class="st2" d="M31 27.8c0-8.5 6.9-15.4 15.4-15.4s15.4 6.9 15.4 15.4-6.9 15.4-15.4 15.4C37.9 43.1 31 36.3 31 27.8z"></path><path class="st3" d="M35.8 59.6v-6.2c-10.1-4.2-17.2-14-17.2-25.6C18.6 13 30.1.9 44.7.1v9c-9.6.9-17.1 8.9-17.1 18.7 0 8.8 6 16.1 14.1 18.2 0 0 3 .9 3 4.4V61H.7c-.9 0-.9-1.3 0-1.3h35.1v-.1zM56.7 59.6h192.8c.9 0 .9 1.3 0 1.3H47.7V50.3c0-3.5 3-4.4 3-4.4 8.1-2.1 14.1-9.4 14.1-18.2 0-9.8-7.5-17.8-17.1-18.7V0c14.6.9 26.2 13 26.2 27.8 0 11.6-7.1 21.4-17.2 25.6v6.2z"></path><path class="st0" d="M22.4 71.2v-.7h-4.6V80H19v-4.6h3.2v-.8H19v-3.4h3.4"></path><path class="st4" d="M29.7 80l-.5-2.4c-.2-1.2-.4-2.1-1.9-2.3.7-.1 2.1-.7 2.1-2.3 0-2-1.7-2.5-3.3-2.5H24V80h1.1v-4.3h.5c1.7 0 2.1.5 2.4 2.4l.4 1.9h1.3zm-1.5-7c0 1.6-1.5 1.9-2.4 1.9h-.6v-3.7h1c.8 0 2 .2 2 1.8z"></path><path class="st0" d="M33.1 80v-9.5h-1.2V80h1.2M40.6 80v-.9H37v-3.7h3.3v-.8H37v-3.4h3.4v-.7h-4.5V80h4.7M49 80v-9.5h-1v8h-.1l-3.9-8h-1.4V80h1.1v-8.1l3.9 8.1H49"></path><path class="st4" d="M58 75.2c0-3.6-1.6-4.7-4.6-4.7h-1.7V80h1.6c2.9 0 4.7-.8 4.7-4.8zm-1.2.1c0 2.7-.8 3.8-3.2 3.8h-.7v-7.9h.7c2.1 0 3.2.8 3.2 4.1zM65.3 77.4c0-1.2-.5-1.7-1.5-2.4-1.3-.8-3-1.2-3-2.6 0-.8.7-1.4 1.7-1.4.9 0 1.8.4 2.3.6v-1.1c-.4-.1-1.3-.2-2-.2-1.8 0-3 .9-3 2.4 0 1.3.7 1.9 1.6 2.4 1.4.8 2.8 1.2 2.8 2.6 0 1.1-.8 1.7-2 1.7-.9 0-1.9-.4-2.4-.7v1.2c.2.1 1.1.3 2.2.3 1.8-.1 3.3-.9 3.3-2.8zM78.5 75.3c0-2.6-.9-5-3.5-5s-3.6 2.4-3.6 5c0 2.5 1 4.8 3.6 4.8s3.5-2.3 3.5-4.8zm-1.2.1c0 1.6-.4 4-2.3 4s-2.3-2.4-2.3-4c0-2 .3-4.3 2.3-4.3 1.9-.1 2.3 2.2 2.3 4.3z"></path><path class="st0" d="M85.4 71.2v-.7h-4.6V80h1.1v-4.6h3.3v-.8h-3.3v-3.4h3.5M96.1 71.2v-.7h-5.6v.7h2.2V80h1.2v-8.8h2.2M103.7 80v-9.5h-1.1v4.1h-3.8v-4.1h-1.1V80h1.1v-4.6h3.8V80h1.1M111.2 80v-.9h-3.6v-3.7h3.3v-.8h-3.3v-3.4h3.5v-.7h-4.6V80h4.7M122.6 80v-.9H119v-3.7h3.3v-.8H119v-3.4h3.5v-.7h-4.6V80h4.7"></path><path class="st4" d="M131.3 80l-3.2-9.5h-1.3l-3.2 9.5h1l1-3h3.5l1 3h1.2zm-2.4-3.8h-3l1.5-4.7 1.5 4.7zM138.6 80l-.5-2.4c-.2-1.2-.4-2.1-1.9-2.3.7-.1 2.1-.7 2.1-2.3 0-2-1.7-2.5-3.3-2.5h-2V80h1.1v-4.3h.5c1.7 0 2.1.5 2.4 2.4l.4 1.9h1.2zm-1.4-7c0 1.6-1.5 1.9-2.4 1.9h-.6v-3.7h1c.7 0 2 .2 2 1.8z"></path><path class="st0" d="M145.2 71.2v-.7h-5.6v.7h2.2V80h1.2v-8.8h2.2M152.9 80v-9.5h-1.2v4.1H148v-4.1h-1.2V80h1.2v-4.6h3.7V80h1.2M166.6 73c0-.9-.6-2.7-3.2-2.7-2.8 0-3.6 2.3-3.6 4.8 0 2.9 1.1 5 3.9 5 1.2 0 2.3-.4 2.9-.9v-4.6h-3.3v.8h2.2v3.4c-.3.2-.7.6-1.6.6-2.3 0-2.7-2.3-2.7-4.4 0-1.7.4-4 2.4-4 1.4 0 1.9 1 1.9 2h1.1zM173.8 80v-.9h-3.6v-3.7h3.3v-.8h-3.3v-3.4h3.5v-.7h-4.6V80h4.7"></path><path class="st4" d="M181.5 80l-.5-2.4c-.2-1.2-.4-2.1-1.9-2.3.7-.1 2.1-.7 2.1-2.3 0-2-1.7-2.5-3.3-2.5h-2.1V80h1.1v-4.3h.5c1.7 0 2.1.5 2.4 2.4l.4 1.9h1.3zm-1.5-7c0 1.6-1.5 1.9-2.4 1.9h-.6v-3.7h1c.8 0 2 .2 2 1.8z"></path><path class="st0" d="M192.3 80v-9.5h-1.6l-2.7 8.1-2.7-8.1h-1.6V80h.9v-8.5l2.8 8.5h1l2.8-8.6V80h1.1"></path><path class="st4" d="M201.6 80l-3.2-9.5h-1.3L194 80h1l1-3h3.5l1 3h1.1zm-2.4-3.8h-3l1.5-4.7 1.5 4.7z"></path><path class="st0" d="M209.7 80v-9.5h-1v8h-.1l-3.9-8h-1.4V80h1.1v-8.1l3.9 8.1h1.4M218.2 70.5H217l-2.3 4-2.2-4h-1.3l2.9 5.1V80h1.1v-4.4l3-5.1"></path></svg>