<svg xmlns="http://www.w3.org/2000/svg" width="193" height="36" viewBox="0 0 193 36">
  <g id="heise_online">
    <path id="logo" d="M31.09,28.57l.75,1.11A18.12,18.12,0,0,1,18.43,36C8.34,36,0,28.69,0,18.36A17.79,17.79,0,0,1,17.24,0h1c8.76,0,16,5.49,16,14.66A13.76,13.76,0,0,1,30,24.09L28.68,23a12.06,12.06,0,0,0,2.6-7.21c0-7.53-5.91-12.43-13.22-12.43-9.78,0-13.22,7.71-13.22,16.31A13.5,13.5,0,0,0,17.91,33.56h.34A19.16,19.16,0,0,0,29.3,30.08,13.62,13.62,0,0,0,31.09,28.57Zm-11.55-.75h0a2,2,0,0,0,2.65-1l4-9a2,2,0,0,0-1-2.65h0a2,2,0,0,0-2.65,1l-4,9A2,2,0,0,0,19.54,27.82Zm.78-20.64h0a2,2,0,0,0-2.62,1l-7.52,17a2,2,0,0,0,1,2.64h0a2,2,0,0,0,2.62-1l7.52-17A2,2,0,0,0,20.32,7.18Z" fill="#323232"/>
    <path id="heise" d="M54.39,14.54a7.28,7.28,0,0,1,1.07,4.3V28H52V19.28a4.59,4.59,0,0,0-.53-2.55A2,2,0,0,0,49.75,16a3.16,3.16,0,0,0-1.68.46,11.22,11.22,0,0,0-1.65,1.36V28H43V7h3.42v5.41l-.12,2.83a11.81,11.81,0,0,1,2-1.53A5,5,0,0,1,51,13,3.9,3.9,0,0,1,54.39,14.54ZM70.84,17.2A9.85,9.85,0,0,1,71.22,20c0,.33,0,.65,0,1a6.36,6.36,0,0,1-.11.71H61.82a4.72,4.72,0,0,0,1.38,3,4.15,4.15,0,0,0,2.92,1.05,5.38,5.38,0,0,0,1.77-.28,7.73,7.73,0,0,0,1.61-.79l1.16,2.14a10.87,10.87,0,0,1-2.32,1.13,8.15,8.15,0,0,1-2.66.44,7.48,7.48,0,0,1-2.82-.52,6.47,6.47,0,0,1-2.28-1.5A6.6,6.6,0,0,1,59.05,24a8.73,8.73,0,0,1-.55-3.22,8.73,8.73,0,0,1,.56-3.2,7.58,7.58,0,0,1,1.5-2.41,6.7,6.7,0,0,1,2.15-1.51,6.23,6.23,0,0,1,2.49-.53,6.43,6.43,0,0,1,2.61.5A5,5,0,0,1,69.69,15,6.18,6.18,0,0,1,70.84,17.2Zm-2.58,2.14a4.36,4.36,0,0,0-.73-2.66,2.63,2.63,0,0,0-2.24-1,3.19,3.19,0,0,0-2.28.92,4.37,4.37,0,0,0-1.22,2.7ZM76.2,7a2.13,2.13,0,0,0-1.51.55A1.8,1.8,0,0,0,74.1,9a1.77,1.77,0,0,0,.59,1.39,2.42,2.42,0,0,0,3,0A1.78,1.78,0,0,0,78.31,9a1.81,1.81,0,0,0-.6-1.41A2.11,2.11,0,0,0,76.2,7ZM74.48,28h3.41V13.44H74.48Zm16.15-7.12A6.28,6.28,0,0,0,89.28,20c-.5-.22-1-.43-1.48-.61S87,19.15,86.65,19a7.19,7.19,0,0,1-1-.45A2.3,2.3,0,0,1,85,18a1.22,1.22,0,0,1-.25-.76,1.45,1.45,0,0,1,.52-1.14,2.37,2.37,0,0,1,1.62-.46,4,4,0,0,1,1.64.34,8.26,8.26,0,0,1,1.56.9l1.57-2.07a10,10,0,0,0-2.1-1.22,6.85,6.85,0,0,0-2.73-.53A5.81,5.81,0,0,0,83,14.29a4,4,0,0,0-1.42,3.15A3.16,3.16,0,0,0,81.91,19a4.33,4.33,0,0,0,1,1.18,5.89,5.89,0,0,0,1.32.86c.49.23,1,.44,1.45.62l1.13.46a7.3,7.3,0,0,1,1,.49,2.65,2.65,0,0,1,.71.6,1.24,1.24,0,0,1,.27.79,1.6,1.6,0,0,1-.57,1.26,2.59,2.59,0,0,1-1.75.49,5,5,0,0,1-2.09-.43,9.56,9.56,0,0,1-1.94-1.2l-1.6,2.19a9.24,9.24,0,0,0,2.53,1.44,8,8,0,0,0,3,.58A7.68,7.68,0,0,0,88.75,28a5,5,0,0,0,1.77-1,4,4,0,0,0,1.09-1.42A4.35,4.35,0,0,0,92,23.84a3.65,3.65,0,0,0-1.35-3ZM106.8,20c0,.33,0,.65,0,1s-.07.53-.1.71H97.4a4.72,4.72,0,0,0,1.38,3,4.15,4.15,0,0,0,2.92,1.05,5.34,5.34,0,0,0,1.77-.28,7.73,7.73,0,0,0,1.61-.79l1.16,2.14a10.78,10.78,0,0,1-2.31,1.13,8.21,8.21,0,0,1-2.67.44,7.48,7.48,0,0,1-2.82-.52,6.47,6.47,0,0,1-2.28-1.5A6.87,6.87,0,0,1,94.63,24a8.73,8.73,0,0,1-.55-3.22,8.53,8.53,0,0,1,.57-3.2,7.39,7.39,0,0,1,1.49-2.41,6.82,6.82,0,0,1,2.15-1.51,6.23,6.23,0,0,1,2.49-.53,6.43,6.43,0,0,1,2.61.5A5.16,5.16,0,0,1,105.28,15a6.33,6.33,0,0,1,1.14,2.19A9.85,9.85,0,0,1,106.8,20Zm-3-.65a4.29,4.29,0,0,0-.73-2.66,2.62,2.62,0,0,0-2.24-1,3.19,3.19,0,0,0-2.28.92,4.37,4.37,0,0,0-1.22,2.7Z" fill="#323232"/>
    <path id="brand" d="M115,20.73c0-4.86,3.29-7.65,6.91-7.65s6.94,2.79,6.94,7.65-3.29,7.62-6.94,7.62S115,25.56,115,20.73Zm10.35,0c0-2.94-1.31-4.86-3.44-4.86s-3.41,1.92-3.41,4.86,1.27,4.83,3.41,4.83S125.35,23.64,125.35,20.73Zm6.65-7.3h2.82l.23,2h.12A6.8,6.8,0,0,1,140,13.08c3.11,0,4.47,2.1,4.47,5.78V28H141V19.31c0-2.41-.68-3.3-2.28-3.3-1.27,0-2.1.63-3.32,1.81V28H132Zm16.5,10.83V7.06h3.41V24.44c0,.83.39,1.12.74,1.12a2,2,0,0,0,.53-.06l.45,2.55a4.63,4.63,0,0,1-1.81.3C149.39,28.35,148.5,26.78,148.5,24.26ZM156.6,9a2.11,2.11,0,1,1,2.1,1.92A2,2,0,0,1,156.6,9Zm.4,4.47h3.41V28H157Zm7.46,0h2.82l.24,2h.11a6.8,6.8,0,0,1,4.78-2.31c3.11,0,4.48,2.1,4.48,5.78V28h-3.41V19.31c0-2.41-.69-3.3-2.29-3.3-1.27,0-2.1.63-3.32,1.81V28h-3.41Zm15.35,7.3c0-4.75,3.3-7.65,6.71-7.65,3.94,0,6,2.85,6,6.91a7.9,7.9,0,0,1-.15,1.66h-9.25a4.16,4.16,0,0,0,4.3,4.06,6,6,0,0,0,3.38-1.07L192,26.78a9.16,9.16,0,0,1-5,1.57C183,28.35,179.81,25.53,179.81,20.73Zm9.76-1.39c0-2.26-1-3.62-3-3.62-1.72,0-3.21,1.27-3.5,3.62Z" fill="#323232"/>
  </g>
</svg>
