<?xml version="1.0" encoding="UTF-8" standalone="no"?>
<svg
   xmlns:dc="http://purl.org/dc/elements/1.1/"
   xmlns:cc="http://creativecommons.org/ns#"
   xmlns:rdf="http://www.w3.org/1999/02/22-rdf-syntax-ns#"
   xmlns:svg="http://www.w3.org/2000/svg"
   xmlns="http://www.w3.org/2000/svg"
   viewBox="0 0 375.58749 198.425"
   height="198.425"
   width="375.58749"
   xml:space="preserve"
   version="1.1"
   id="svg2"><metadata
     id="metadata8"><rdf:RDF><cc:Work
         rdf:about=""><dc:format>image/svg+xml</dc:format><dc:type
           rdf:resource="http://purl.org/dc/dcmitype/StillImage" /><dc:title></dc:title></cc:Work></rdf:RDF></metadata><defs
     id="defs6" /><g
     transform="matrix(1.25,0,0,-1.25,0,198.425)"
     id="g10"><g
       transform="scale(0.1,0.1)"
       id="g12"><path
         id="path14"
         style="fill:#090a0b;fill-opacity:1;fill-rule:nonzero;stroke:none"
         d="m 487.363,801.469 -62.519,95.668 -12.649,-66.625 -1.703,-25.625 -32.113,0 43.394,222.753 0,31.43 35.524,3.75 -31.082,-158.168 42.363,24.25 c 12.301,7.172 20.488,13.668 20.488,20.157 0,6.492 -10.238,10.933 -10.238,10.933 l 25.961,16.742 c 0,0 15.707,-7.175 15.707,-24.597 0,-16.399 -8.195,-27.336 -28.695,-37.926 l -33.817,-17.422 60.805,-88.137 -31.426,-7.183" /><path
         id="path16"
         style="fill:#090a0b;fill-opacity:1;fill-rule:nonzero;stroke:none"
         d="m 592.719,800.449 c -44.074,0 -55.34,40.317 -55.34,65.93 0,64.57 33.473,111.719 90.527,111.719 30.063,0 54.657,-24.598 54.657,-66.621 0,-58.075 -30.739,-111.028 -89.844,-111.028 m 59.785,106.246 c 0,26.309 -12.984,48.856 -33.145,48.856 -29.714,0 -51.921,-45.438 -51.921,-83.016 0,-28.019 9.906,-49.203 32.109,-49.203 22.894,0 52.957,28.02 52.957,83.363" /><path
         id="path18"
         style="fill:#090a0b;fill-opacity:1;fill-rule:nonzero;stroke:none"
         d="m 801.344,804.887 20.844,111.035 c 2.039,10.254 6.148,33.82 -11.282,33.82 -23.566,0 -57.051,-31.765 -57.051,-31.765 l -16.738,-87.465 -2.051,-25.625 -31.429,0 26.644,136.66 -2.386,28.016 33.816,7.167 -5.125,-33.14 c 0,0 34.508,34.172 65.602,34.172 29.726,0 35.875,-23.574 31.429,-50.567 l -18.793,-97.371 -1.699,-24.937 -31.781,0" /><path
         id="path20"
         style="fill:#090a0b;fill-opacity:1;fill-rule:nonzero;stroke:none"
         d="m 864.27,811.391 97.019,124.343 13.324,14.008 -86.082,0 11.266,23.235 120.603,0 0,-6.497 -96.689,-124.359 -13.32,-14.004 101.469,0 -4.45,-23.23 -143.14,0 0,6.504" /><path
         id="path22"
         style="fill:#090a0b;fill-opacity:1;fill-rule:nonzero;stroke:none"
         d="m 1062.1,876.293 0,-3.414 c 0,-24.606 11.28,-46.129 39.63,-46.129 28.01,0 51.25,25.969 51.25,25.969 l 0,-29.719 c 0,0 -17.43,-22.551 -58.42,-22.551 -42.03,0 -62.52,32.797 -62.52,70.371 0,55.696 33.82,107.278 85.07,107.278 30.07,0 44.41,-16.055 44.41,-37.231 0,-45.101 -50.57,-64.574 -99.42,-64.574 m 2.05,19.812 c 8.54,0.34 66.28,4.786 66.28,41.34 0,7.86 -3.08,18.45 -17.76,18.45 -26.31,0 -43.05,-29.379 -48.52,-59.79" /><path
         id="path24"
         style="fill:#090a0b;fill-opacity:1;fill-rule:nonzero;stroke:none"
         d="m 1234.69,943.938 c 0,0 28.36,33.48 57.73,33.48 19.81,0 37.58,-17.762 37.58,-54.32 0,-60.805 -28.69,-122.649 -89.16,-122.649 -11.96,0 -30.75,5.121 -31.09,6.156 l -11.27,-58.093 -1.72,-25.606 -31.76,0 42.7,218.645 -2.39,28.012 33.82,7.171 -4.44,-32.796 z m -20.5,-114.793 c 0,0 11.62,-5.45 26.65,-5.45 36.22,0 59.1,47.465 59.1,94.621 0,22.891 -9.91,31.77 -20.15,31.77 -17.09,0 -48.52,-33.137 -48.52,-33.137 l -17.08,-87.804" /><path
         id="path26"
         style="fill:#090a0b;fill-opacity:1;fill-rule:nonzero;stroke:none"
         d="m 1414.69,972.977 52.27,0 -15.05,-23.227 -42.01,0 c -19.81,-102.832 -19.81,-105.234 -19.81,-107.285 0,-10.586 6.15,-14.688 15.02,-14.688 12.65,0 29.72,10.586 40.32,19.141 l 0,-29.043 c -16.74,-11.621 -33.14,-17.426 -48.86,-17.426 -18.79,0 -35.87,10.59 -35.87,36.899 0,4.429 0.69,9.57 20.5,112.402 l -20.5,0 4.79,23.227 20.5,0 c 1.7,10.242 4.1,20.496 5.8,30.743 l 32.8,3.76 -9.9,-34.503" /><path
         id="path28"
         style="fill:#090a0b;fill-opacity:1;fill-rule:nonzero;stroke:none"
         d="m 1515.32,804.887 -19.81,139.73 -9.57,28.36 33.48,4.441 17.08,-113.766 1.04,-24.937 12.65,24.937 39.61,65.934 c 3.07,5.129 4.44,10.594 4.44,15.719 0,15.031 -10.26,27.672 -10.26,27.672 l 30.4,4.441 c 0,0 6.17,-8.887 8.23,-22.207 l 14,-91.559 1.03,-24.937 12.62,24.937 37.93,63.547 c 10.26,17.418 5.12,33.821 -4.43,45.778 l 30.41,4.441 c 0,0 8.53,-11.613 8.53,-28.352 0,-7.519 -2.04,-17.421 -7.86,-26.652 l -75.16,-121.965 -24.25,4.438 -13.66,96.004 -62.19,-100.442 -24.26,4.438" /><path
         id="path30"
         style="fill:#090a0b;fill-opacity:1;fill-rule:nonzero;stroke:none"
         d="m 1763.79,876.293 0,-3.414 c 0,-24.606 11.28,-46.129 39.63,-46.129 28.01,0 51.24,25.969 51.24,25.969 l 0,-29.719 c 0,0 -17.43,-22.551 -58.42,-22.551 -42.01,0 -62.52,32.797 -62.52,70.371 0,55.696 33.83,107.278 85.06,107.278 30.08,0 44.42,-16.055 44.42,-37.231 0,-45.101 -50.56,-64.574 -99.41,-64.574 m 2.04,19.812 c 8.54,0.34 66.29,4.786 66.29,41.34 0,7.86 -3.09,18.45 -17.76,18.45 -26.31,0 -43.05,-29.379 -48.53,-59.79" /><path
         id="path32"
         style="fill:#090a0b;fill-opacity:1;fill-rule:nonzero;stroke:none"
         d="m 2000.05,943.938 c 0,0 -12.64,4.101 -19.46,4.101 -23.25,0 -49.88,-45.434 -54.67,-70.039 l -9.23,-47.488 -1.7,-25.617 -32.12,0 26.64,136.656 -2.38,28.347 33.82,6.836 -6.84,-42.363 c 6.14,9.902 25.28,43.727 55.69,43.727 10.94,0 24.26,-6.149 24.26,-6.149 l -14.01,-28.011" /><path
         id="path34"
         style="fill:#090a0b;fill-opacity:1;fill-rule:nonzero;stroke:none"
         d="m 2118.74,801.469 -62.52,95.668 -12.65,-66.625 -1.71,-25.625 -32.11,0 43.38,222.753 0,31.43 35.54,3.76 -31.09,-158.178 42.37,24.25 c 12.3,7.18 20.49,13.668 20.49,20.164 0,6.489 -10.24,10.926 -10.24,10.926 l 25.95,16.742 c 0,0 15.72,-7.171 15.72,-24.593 0,-16.403 -8.2,-27.34 -28.7,-37.93 l -33.81,-17.422 60.8,-88.137 -31.42,-7.183" /><path
         id="path36"
         style="fill:#090a0b;fill-opacity:1;fill-rule:nonzero;stroke:none"
         d="m 563.223,505.02 20.832,111.011 c 2.047,10.254 6.156,33.828 -11.274,33.828 -23.566,0 -57.039,-31.777 -57.039,-31.777 l -16.75,-87.441 -2.051,-25.621 -31.429,0 26.656,136.636 -2.398,28.028 33.816,7.168 -5.117,-33.145 c 0,0 34.504,34.18 65.586,34.18 29.73,0 35.879,-23.594 31.441,-50.567 l -18.793,-97.379 -1.707,-24.921 -31.773,0" /><path
         id="path38"
         style="fill:#090a0b;fill-opacity:1;fill-rule:nonzero;stroke:none"
         d="m 674.48,576.398 0,-3.41 c 0,-24.59 11.286,-46.117 39.629,-46.117 28.008,0 51.25,25.961 51.25,25.961 l 0,-29.73 c 0,0 -17.429,-22.543 -58.429,-22.543 -42.02,0 -62.52,32.8 -62.52,70.371 0,55.687 33.828,107.289 85.082,107.289 30.059,0 44.41,-16.055 44.41,-37.227 0,-45.117 -50.578,-64.594 -99.422,-64.594 m 2.043,19.829 c 8.54,0.351 66.282,4.765 66.282,41.328 0,7.851 -3.078,18.457 -17.762,18.457 -26.309,0 -43.051,-29.395 -48.52,-59.785" /><path
         id="path40"
         style="fill:#090a0b;fill-opacity:1;fill-rule:nonzero;stroke:none"
         d="m 927.867,557.609 c -4.785,-24.589 -4.785,-37.57 8.875,-52.589 l -30.402,-4.461 c -7.863,6.16 -10.93,16.062 -10.93,25.632 l 1.02,8.528 c 0,0 -33.813,-34.508 -64.914,-34.508 -29.719,0 -35.871,23.598 -31.422,50.57 l 18.785,97.379 1.703,24.922 31.781,0 -20.847,-111.012 c -2.047,-10.261 -6.149,-33.832 11.281,-33.832 23.574,0 57.043,31.782 57.043,31.782 l 16.742,87.437 2.051,25.625 31.433,0 -22.199,-115.473" /><path
         id="path42"
         style="fill:#090a0b;fill-opacity:1;fill-rule:nonzero;stroke:none"
         d="m 1003.33,576.398 0,-3.41 c 0,-24.59 11.26,-46.117 39.62,-46.117 28.01,0 51.25,25.961 51.25,25.961 l 0,-29.73 c 0,0 -17.43,-22.543 -58.42,-22.543 -42.026,0 -62.522,32.8 -62.522,70.371 0,55.687 33.822,107.289 85.072,107.289 30.06,0 44.41,-16.055 44.41,-37.227 0,-45.117 -50.56,-64.594 -99.41,-64.594 m 2.04,19.829 c 8.55,0.351 66.28,4.765 66.28,41.328 0,7.851 -3.08,18.457 -17.76,18.457 -26.31,0 -43.05,-29.395 -48.52,-59.785" /><path
         id="path44"
         style="fill:#090a0b;fill-opacity:1;fill-rule:nonzero;stroke:none"
         d="m 1268.76,500.559 c -44.07,0 -55.35,40.32 -55.35,65.941 0,64.57 33.48,111.719 90.54,111.719 30.06,0 54.65,-24.61 54.65,-66.621 0,-58.086 -30.73,-111.039 -89.84,-111.039 m 59.79,106.254 c 0,26.308 -12.99,48.847 -33.15,48.847 -29.72,0 -51.91,-45.43 -51.91,-83.012 0,-28 9.9,-49.199 32.11,-49.199 22.88,0 52.95,28.031 52.95,83.364 m -51.93,94.98 c -9.23,0 -17.08,8.203 -17.08,18.789 0,10.254 7.85,18.789 17.08,18.789 9.22,0 17.07,-8.535 17.07,-18.789 0,-10.586 -7.85,-18.789 -17.07,-18.789 m 62.86,0 c -9.22,0 -17.08,8.203 -17.08,18.789 0,10.254 7.86,18.789 17.08,18.789 9.23,0 17.08,-8.535 17.08,-18.789 0,-10.586 -7.85,-18.789 -17.08,-18.789" /><path
         id="path46"
         style="fill:#090a0b;fill-opacity:1;fill-rule:nonzero;stroke:none"
         d="m 1488.32,501.582 -62.51,95.66 -12.65,-66.601 -1.71,-25.621 -32.1,0 43.37,222.73 0,31.426 35.54,3.769 -31.08,-158.183 42.35,24.258 c 12.32,7.168 20.5,13.671 20.5,20.156 0,6.484 -10.25,10.937 -10.25,10.937 l 25.97,16.739 c 0,0 15.72,-7.188 15.72,-24.59 0,-16.407 -8.21,-27.344 -28.71,-37.93 l -33.81,-17.422 60.82,-88.14 -31.45,-7.188" /><path
         id="path48"
         style="fill:#090a0b;fill-opacity:1;fill-rule:nonzero;stroke:none"
         d="m 1593.69,500.559 c -44.08,0 -55.35,40.32 -55.35,65.941 0,64.57 33.49,111.719 90.54,111.719 30.05,0 54.66,-24.61 54.66,-66.621 0,-58.086 -30.76,-111.039 -89.85,-111.039 m 59.78,106.254 c 0,26.308 -12.98,48.847 -33.13,48.847 -29.73,0 -51.93,-45.43 -51.93,-83.012 0,-28 9.89,-49.199 32.1,-49.199 22.89,0 52.96,28.031 52.96,83.364" /><path
         id="path50"
         style="fill:#090a0b;fill-opacity:1;fill-rule:nonzero;stroke:none"
         d="m 1802.29,505.02 20.86,111.011 c 2.05,10.254 6.16,33.828 -11.28,33.828 -23.58,0 -57.05,-31.777 -57.05,-31.777 l -16.72,-87.441 -2.07,-25.621 -31.44,0 26.65,136.636 -2.39,28.028 33.83,7.168 -5.13,-33.145 c 0,0 34.5,34.18 65.6,34.18 29.72,0 35.87,-23.594 31.42,-50.567 l -18.79,-97.379 -1.7,-24.921 -31.79,0" /><path
         id="path52"
         style="fill:#090a0b;fill-opacity:1;fill-rule:nonzero;stroke:none"
         d="m 1937.9,500.559 c -44.08,0 -55.35,40.32 -55.35,65.941 0,64.57 33.49,111.719 90.54,111.719 30.05,0 54.65,-24.61 54.65,-66.621 0,-58.086 -30.75,-111.039 -89.84,-111.039 m 59.78,106.254 c 0,26.308 -12.98,48.847 -33.13,48.847 -29.73,0 -51.93,-45.43 -51.93,-83.012 0,-28 9.89,-49.199 32.1,-49.199 22.9,0 52.96,28.031 52.96,83.364" /><path
         id="path54"
         style="fill:#090a0b;fill-opacity:1;fill-rule:nonzero;stroke:none"
         d="m 2146.51,505.02 20.86,111.011 c 2.03,10.254 6.15,33.828 -11.28,33.828 -23.59,0 -57.06,-31.777 -57.06,-31.777 l -16.73,-87.441 -2.06,-25.621 -31.44,0 26.65,136.636 -2.39,28.028 33.82,7.168 -4.09,-33.145 c 0,0 33.48,34.18 64.58,34.18 23.56,0 32.43,-15.059 32.8,-34.864 6.83,6.504 31.76,34.864 66.28,34.864 29.71,0 35.86,-23.594 31.4,-50.567 l -18.77,-97.379 -1.72,-24.921 -31.77,0 20.86,111.011 c 2.03,10.254 6.14,33.828 -11.28,33.828 -24.6,0 -51.94,-27.324 -58.42,-33.125 l -16.76,-86.793 -1.7,-24.921 -31.78,0" /><path
         id="path56"
         style="fill:#090a0b;fill-opacity:1;fill-rule:nonzero;stroke:none"
         d="m 2356.99,530.641 -1.37,-25.621 -32.1,0 26.64,136.636 1.71,31.446 33.82,3.75 -28.7,-146.211 z m 18.1,211.113 c 9.24,0 17.43,-8.203 17.43,-17.754 0,-9.57 -8.19,-18.457 -17.43,-18.457 -9.89,0 -17.76,8.887 -17.76,18.457 0,9.551 7.87,17.754 17.76,17.754" /><path
         id="path58"
         style="fill:#090a0b;fill-opacity:1;fill-rule:nonzero;stroke:none"
         d="m 2435.57,576.398 0,-3.41 c 0,-24.59 11.28,-46.117 39.62,-46.117 28,0 51.25,25.961 51.25,25.961 l 0,-29.73 c 0,0 -17.43,-22.543 -58.44,-22.543 -42,0 -62.5,32.8 -62.5,70.371 0,55.687 33.82,107.289 85.06,107.289 30.06,0 44.41,-16.055 44.41,-37.227 0,-45.117 -50.58,-64.594 -99.4,-64.594 m 2.05,19.829 c 8.52,0.351 66.26,4.765 66.26,41.328 0,7.851 -3.08,18.457 -17.77,18.457 -26.3,0 -43.04,-29.395 -48.49,-59.785" /><path
         id="path60"
         style="fill:#46a03e;fill-opacity:1;fill-rule:nonzero;stroke:none"
         d="m 2422.05,789.77 c -59.83,0 -116.09,23.32 -158.41,65.632 -42.32,42.317 -65.64,98.575 -65.64,158.418 0,59.84 23.31,116.11 65.62,158.43 42.33,42.32 98.6,65.63 158.43,65.63 59.85,0 116.1,-23.3 158.43,-65.62 42.32,-42.32 65.62,-98.58 65.62,-158.44 0,-59.847 -23.32,-116.109 -65.64,-158.418 -42.31,-42.312 -98.56,-65.632 -158.41,-65.632 m 0,422.72 c -53.05,0 -102.96,-20.66 -140.48,-58.2 -37.51,-37.52 -58.17,-87.4 -58.17,-140.47 0,-53.062 20.66,-102.945 58.18,-140.468 37.52,-37.532 87.42,-58.196 140.47,-58.196 53.07,0 102.95,20.664 140.47,58.196 37.53,37.519 58.19,87.402 58.19,140.468 0,53.07 -20.66,102.97 -58.18,140.49 -37.52,37.52 -87.41,58.18 -140.48,58.18" /><path
         id="path62"
         style="fill:#296ebe;fill-opacity:1;fill-rule:nonzero;stroke:none"
         d="m 2392.34,802.094 c -48.63,0 -94.32,18.926 -128.72,53.328 -34.36,34.367 -53.31,80.066 -53.31,128.695 0,48.633 18.95,94.333 53.31,128.723 34.4,34.38 80.09,53.32 128.72,53.32 48.64,0 94.34,-18.94 128.72,-53.32 70.97,-70.98 70.97,-186.465 0,-257.438 -34.38,-34.382 -80.08,-53.308 -128.72,-53.308 m 0,338.686 c -41.83,0 -81.17,-16.3 -110.77,-45.89 -29.58,-29.59 -45.87,-68.93 -45.87,-110.773 0,-41.84 16.29,-81.172 45.88,-110.75 29.58,-29.594 68.92,-45.883 110.76,-45.883 41.86,0 81.19,16.289 110.78,45.868 61.06,61.078 61.06,160.448 0,221.538 -29.59,29.59 -68.92,45.89 -110.78,45.89" /><path
         id="path64"
         style="fill:#da244c;fill-opacity:1;fill-rule:nonzero;stroke:none"
         d="m 2358.21,816.234 c -35.73,0 -69.31,13.907 -94.57,39.168 -52.15,52.141 -52.17,136.996 -0.02,189.148 25.28,25.27 58.86,39.18 94.59,39.18 35.73,0 69.3,-13.91 94.56,-39.18 25.28,-25.26 39.19,-58.851 39.19,-94.573 0,-35.727 -13.92,-69.309 -39.19,-94.563 -25.25,-25.258 -58.83,-39.18 -94.56,-39.18 m 0,242.106 c -28.94,0 -56.16,-11.27 -76.63,-31.74 -42.25,-42.248 -42.25,-111.002 0,-153.248 20.47,-20.457 47.69,-31.727 76.63,-31.727 28.94,0 56.16,11.27 76.6,31.738 20.48,20.461 31.76,47.668 31.76,76.614 0,28.953 -11.27,56.163 -31.74,76.633 -20.46,20.46 -47.68,31.73 -76.62,31.73" /></g></g></svg>