<?xml version="1.0" encoding="UTF-8"?>
<!-- Generator: Adobe Illustrator 23.0.3, SVG Export Plug-In . SVG Version: 6.00 Build 0)  -->
<svg version="1.1" id="Ebene_1" xmlns="http://www.w3.org/2000/svg" xmlns:xlink="http://www.w3.org/1999/xlink" x="0px" y="0px" viewBox="0 0 388.8 388.4" style="enable-background:new 0 0 388.8 388.4;" xml:space="preserve">
<style type="text/css">
	.st0{fill:#FFFFFF;stroke:#000000;stroke-miterlimit:10;}
	.st1{fill:none;}
	.st2{fill:#FF0000;}
</style>
<rect class="st0" width="388.8" height="388.4"/>
<g>
	<polygon class="st1" points="388.4,0 388.4,388.4 0,388.4 0,388.4 388.8,388.4 388.8,0  "/>
	<path class="st2" d="M291,262c-1.8,0-3.1,0.8-3.8,2.3c-0.3,0.7-0.5,1.5-0.5,2.4h8.6c0-0.9-0.2-1.7-0.5-2.4   C294.1,262.8,292.8,262,291,262z"/>
	<path class="st2" d="M49.4,256.6c-1-1.3-2.5-1.9-4.5-1.9h-4.5v20h4.5c2,0,3.5-0.6,4.5-1.9c0.5-0.7,0.9-1.6,1.1-2.9   c0.1-1.1,0.2-2.9,0.2-5.4c0-2.5-0.1-4.2-0.2-5.2C50.3,258.2,50,257.3,49.4,256.6z"/>
	<path class="st2" d="M82.7,262.4c-1.5,0-2.5,0.6-3.1,1.8c-0.4,0.8-0.6,2.2-0.6,4c0,1.8,0.2,3.2,0.6,4.1c0.5,1.2,1.6,1.8,3.1,1.8   c1.5,0,2.6-0.6,3.1-1.9c0.4-0.9,0.6-2.2,0.6-3.9c0-1.8-0.2-3.1-0.6-3.9C85.3,263,84.2,262.4,82.7,262.4z"/>
	<path class="st2" d="M129.2,273.2c0,1.7,1.1,2.6,3.2,2.6c1.9,0,3.2-0.5,3.8-1.4c0.3-0.5,0.5-1.4,0.5-2.5v-1.2h-4.4   C130.2,270.6,129.2,271.5,129.2,273.2z"/>
	<path class="st2" d="M289.8,176.9H280v14h9.8c2.2,0,4.1-0.6,5.5-1.9c1.4-1.3,2.1-3,2.1-5.1c0-2.1-0.7-3.8-2.1-5.1   C293.9,177.5,292,176.9,289.8,176.9z"/>
	<path class="st2" d="M388.4,0H0v388.4h388.4V0z M289.8,99.7h10.5v53.6h-10.5V99.7z M244.2,99.7h35.3v9.3h-24.9v12.6h21.2v9.3h-21.2   v13h24.9v9.3h-35.3V99.7z M197.2,99.7h38.5v9.3h-14v44.3h-10.5v-44.3h-14V99.7z M177.4,176.9v-9.3h38.3v9.3h-13.9V221h-10.4v-44.1   H177.4z M103.1,99.7h9.3l21.2,32.8V99.7h10.5v53.6h-9.3l-21.2-32.9v32.9h-10.5V99.7z M114.2,189.4v9.3H93.1v13h24.7v9.3H82.7v-53.4   h35.2v9.3H93.1v12.5H114.2z M80.2,99.7h10.5v53.6H80.2V99.7z M34.6,99.7h35.3v9.3H45.1v12.6h21.2v9.3H45.1v13h24.9v9.3H34.6V99.7z    M56.5,271.3c-0.4,2.4-1.3,4.3-2.9,5.8c-2,2-4.7,2.9-8.1,2.9H34.4v-30.8h11.1c3.5,0,6.2,1,8.1,2.9c1.5,1.5,2.5,3.4,2.9,5.7   c0.2,1,0.3,3.2,0.3,6.6C56.7,268,56.6,270.3,56.5,271.3z M68,280.1h-5.7v-22.5H68V280.1z M68,253.8h-5.7v-4.6H68V253.8z    M66.9,217.2c-3.5,2.9-7.7,4.3-12.8,4.3c-5.7,0-10.5-1.9-14.4-5.8c-2.4-2.4-3.9-5.5-4.6-9.2c-0.4-2.2-0.6-6.2-0.6-12.1   c0-5.8,0.2-9.9,0.6-12.1c0.7-3.7,2.3-6.8,4.6-9.2c3.9-3.9,8.7-5.8,14.4-5.8c5.1,0,9.5,1.5,13,4.3c3.5,2.9,5.7,7.1,6.6,12.5H63.1   c-1.2-5-4.2-7.6-9-7.6c-3.1,0-5.6,1.2-7.3,3.5c-1.4,1.9-2,6.7-2,14.3c0,4.1,0,6.7,0.1,7.8c0.3,3.3,1.2,5.8,2.5,7.3   c1.6,1.9,3.9,2.8,6.7,2.8c4.8,0,7.8-2.5,9-7.6h10.6C72.8,210,70.5,214.2,66.9,217.2z M92,279.3c0,2.7-0.9,5-2.7,6.7   c-1.8,1.7-4.2,2.6-7.2,2.6c-3.4,0-6.1-1-8.2-2.9l3.5-3.5c1.2,1.1,2.6,1.7,4.4,1.7c1.6,0,2.7-0.5,3.5-1.5c0.7-0.8,1-1.9,1-3.2v-2.3   c-1.4,1.5-3.1,2.2-5.4,2.2c-2.2,0-4-0.7-5.4-2c-1-1-1.6-2.2-1.9-3.8c-0.2-1.1-0.3-2.8-0.3-5.1c0-2.3,0.1-4,0.3-5.1   c0.3-1.5,1-2.8,1.9-3.8c1.3-1.3,3.1-2,5.4-2c2.2,0,4.1,0.8,5.5,2.4v-2.1H92V279.3z M103.9,280.1h-5.7v-22.5h5.7V280.1z    M103.9,253.8h-5.7v-4.6h5.7V253.8z M120.3,262.5h-3.9v10.8c0,1.4,0.6,2,1.9,2h2v4.8h-3.1c-2.1,0-3.8-0.7-5-2   c-1-1.2-1.6-2.6-1.6-4.4v-11.1h-2.4v-4.3h2.4v-6.7h5.7v6.7h3.9V262.5z M142.4,280.1h-5.5v-1.9c-1.4,1.4-3.3,2.2-5.5,2.2   c-2.5,0-4.4-0.6-5.7-1.9c-1.3-1.3-1.9-3-1.9-5.1c0-1.9,0.7-3.5,2-4.7c1.3-1.2,3.2-1.8,5.7-1.8h5.3v-1.1c0-2.4-1.4-3.5-4.2-3.5   c-1.8,0-3.2,0.6-4.3,1.9l-3.6-3.5c1.1-1.2,2.2-2,3.5-2.5c1.1-0.4,2.7-0.6,4.6-0.6c6.4,0,9.6,2.6,9.6,7.9V280.1z M158,280.1h-3.2   c-2.2,0-3.8-0.7-5-2c-1-1.2-1.6-2.6-1.6-4.4v-24.3h5.7v24c0,1.4,0.7,2,2,2h2.1V280.1z M168.9,221h-9.3l-21.1-32.8V221h-10.4v-53.4   h9.3l21.1,32.7v-32.7h10.4V221z M151.9,146.7l6.8-6.8c3,3,7.3,4.5,13,4.5c6.3,0,9.5-2.2,9.5-6.6c0-2-0.5-3.5-1.6-4.5   c-1.1-1-2.7-1.6-4.8-1.9l-6.5-0.9c-9.5-1.3-14.2-6.3-14.2-15c0-4.9,1.7-8.8,5-11.8c3.4-3,7.9-4.5,13.6-4.5c7.2,0,13,2.1,17.3,6.3   l-6.6,6.6c-2.6-2.5-6.2-3.7-11-3.7c-2.7,0-4.7,0.6-6.1,1.9c-1.4,1.3-2.1,2.9-2.1,4.9c0,1.6,0.6,2.9,1.7,3.9c1.1,1.1,2.7,1.7,4.9,2   l6.3,0.9c4.6,0.7,8,2,10.2,4.1c2.8,2.6,4.1,6.4,4.1,11.4c0,5.1-1.9,9.1-5.6,11.9c-3.7,2.9-8.5,4.3-14.3,4.3   C163.1,153.8,156.6,151.4,151.9,146.7z M193.2,254.7h-14.3v7.6h12.1v5.4h-12.1v12.5h-6v-30.8h20.3V254.7z M216.5,280.1H211V278   c-1.5,1.6-3.3,2.3-5.6,2.3c-2.2,0-4-0.7-5.3-2c-1.5-1.5-2.3-3.7-2.3-6.4v-14.4h5.7v13.6c0,1.4,0.4,2.5,1.2,3.2   c0.7,0.6,1.5,0.9,2.5,0.9c1,0,1.9-0.3,2.5-0.9c0.8-0.7,1.2-1.8,1.2-3.2v-13.6h5.7V280.1z M232.9,262.5h-3.9v10.8c0,1.4,0.6,2,1.9,2   h2v4.8h-3.1c-2.1,0-3.8-0.7-5-2c-1-1.2-1.6-2.6-1.6-4.4v-11.1h-2.4v-4.3h2.4v-6.7h5.7v6.7h3.9V262.5z M256.4,280.1h-5.5V278   c-1.5,1.6-3.3,2.3-5.6,2.3c-2.2,0-4-0.7-5.3-2c-1.5-1.5-2.3-3.7-2.3-6.4v-14.4h5.7v13.6c0,1.4,0.4,2.5,1.2,3.2   c0.7,0.6,1.5,0.9,2.5,0.9c1,0,1.9-0.3,2.5-0.9c0.8-0.7,1.2-1.8,1.2-3.2v-13.6h5.7V280.1z M259.4,176.9h-24.7v12.5h21.1v9.3h-21.1   v13h24.7v9.3h-35.2v-53.4h35.2V176.9z M274.9,263.7c-0.9-0.9-1.9-1.3-3-1.3c-0.9,0-1.8,0.3-2.5,1c-0.8,0.8-1.2,1.8-1.2,3.2v13.6   h-5.6v-22.5h5.5v2.2c1.4-1.6,3.2-2.4,5.7-2.4c2.1,0,3.9,0.7,5.3,2.1L274.9,263.7z M300.8,270.6h-14.1c0,1.5,0.4,2.7,1.3,3.6   s2.1,1.4,3.6,1.4c2,0,3.7-0.7,5.1-2.1l3.4,3.3c-1.2,1.2-2.5,2.1-3.6,2.6c-1.4,0.6-3,0.9-4.9,0.9c-6.9,0-10.4-3.8-10.4-11.5   c0-3.6,0.9-6.4,2.7-8.5c1.8-2,4.1-3,7.1-3c3.1,0,5.5,1,7.3,3.1c1.7,2,2.6,4.5,2.6,7.7V270.6z M297.9,221l-10.4-21.3H280V221h-10.4   v-53.4h20.9c5.3,0,9.5,1.6,12.7,4.8c3,3.1,4.6,6.9,4.6,11.6c0,3.6-1,6.6-2.9,9.1c-1.7,2.3-4,3.9-6.8,4.9l11.9,23H297.9z    M353.8,153.3h-9.3l-21.2-32.9v32.9h-10.5V99.7h9.3l21.2,32.8V99.7h10.5V153.3z"/>
</g>
</svg>