<svg id="Ebene_1" data-name="Ebene 1" xmlns="http://www.w3.org/2000/svg" width="253.2mm" height="92.03mm" viewBox="0 0 717.72 260.87"><title>logo-germanwatch</title><path d="M455.82,206.39a124.46,124.46,0,0,1-38.87,32.51q-4.65-1.07-9.5-2a119.12,119.12,0,0,0,21.69-30l-7,.1a107.87,107.87,0,0,1-22.27,28.68A271.61,271.61,0,0,0,370.46,233a236.75,236.75,0,0,0,5-25.59l-6.12,0a232.71,232.71,0,0,1-5.11,25.39,283.25,283.25,0,0,0-31.35,1.12,148,148,0,0,1-9.11-26.63l-6.36-.05a159.08,159.08,0,0,0,9,27.33c-5.09.59-10.06,1.31-14.89,2.17A106.84,106.84,0,0,1,288,206.87l-7-.12A118.15,118.15,0,0,0,304,238.19l-3.15.71A124.48,124.48,0,0,1,262,206.37l-9.5-.24a130.83,130.83,0,0,0,212.83,0ZM318.1,241.85c3.67-.56,7.39-1.06,11.2-1.46A60.39,60.39,0,0,0,336.36,251,69.36,69.36,0,0,1,318.1,241.85Zm34.61,11.4c-1.06-.05-2.11-.16-3.17-.23-4.58-1.12-9.26-5.72-13.64-13.26a253.39,253.39,0,0,1,26.48-.88C359.17,248.65,355.74,253.71,352.72,253.25Zm9.74.07a60,60,0,0,0,6.26-14.3c8.41.28,16.65.94,24.6,1.94C384.49,247.37,372.24,252.88,362.46,253.32ZM393,248.59a86,86,0,0,0,8.72-6.44q3.15.51,6.21,1.1A122.65,122.65,0,0,1,393,248.59Z" style="fill:#59358c"/><path d="M236.39,115.38c2.77-16.08,3.3-16.9,17.51-23.17A124.08,124.08,0,0,1,268.61,87a176.3,176.3,0,0,0-4.67,27.73l6.24-.1a169.71,169.71,0,0,1,5.32-29.5,277.77,277.77,0,0,1,37-6.55c-1.56,11.08-2.61,23-3.12,35.59l6.12,0a355.75,355.75,0,0,1,3.22-36.2c13.23-1.44,40.18-2.38,53.36-1.63,1,11.35,1.78,24,2.12,37.71h6.09c-.33-12.18-1-25-2.13-37.51a337.07,337.07,0,0,1,56,6.84A168.93,168.93,0,0,1,440,114.53l6.23.09A176,176,0,0,0,441.07,85a134.12,134.12,0,0,1,23.06,7.7c4.78,2.22,16.42,6.3,17.33,22.7l7.55.23C481.34,50.6,425.94,0,358.92,0S236.49,50.6,228.83,115.61Zm77-42.38a303.92,303.92,0,0,0-36,5.85,133.09,133.09,0,0,1,20-39.45,221.93,221.93,0,0,1,25.5-4.66A210.89,210.89,0,0,0,313.38,73Zm6.23-.61c2.49-15.22,5.89-28.18,9.86-38.41a300.71,300.71,0,0,1,36-1.38,302.22,302.22,0,0,1,6.13,38.22C359.87,70.12,333.82,71,319.61,72.39ZM377.67,71a313.89,313.89,0,0,0-5.91-38.25,267.48,267.48,0,0,1,39.32,4.31,130.32,130.32,0,0,1,21.22,40A373.26,373.26,0,0,0,377.67,71Zm78.61-16A123.37,123.37,0,0,1,476.34,92.6c-8.37-5.79-21.41-10.49-37.12-14a142.41,142.41,0,0,0-19-39.51C436.23,42.95,448.88,48.42,456.29,55.08ZM442.81,40.41a159.61,159.61,0,0,0-27.89-8.25A95.59,95.59,0,0,0,393,12.27,123.55,123.55,0,0,1,442.81,40.41Zm-37.6-10A281.9,281.9,0,0,0,370.3,27c-2.24-8.22-4.89-14.94-8-19.42C378.3,8.66,393.51,18.1,405.21,30.36Zm-55-22.57c1.06-.07,2.12-.15,3.19-.2,3.35.47,7.1,7.12,10.5,19.19-9.72-.26-23.26.35-31.89,1.11C337.57,16,343.91,8.92,350.26,7.79Zm-25,20.79c-7.64.86-14.93,2-21.79,3.4,9.61-10.55,20.8-18.22,33-22.15C332.34,14.41,328.59,20.75,325.26,28.58ZM309.75,17.69a102,102,0,0,0-16.16,16.57,141.86,141.86,0,0,0-18.43,6A124,124,0,0,1,309.75,17.69Zm-49.54,39.1c5.22-5.67,15-10.76,27.84-14.79a144.92,144.92,0,0,0-17.69,38.62c-12,3.24-22,7.25-28.87,12A123.27,123.27,0,0,1,260.21,56.78Z" style="fill:#59358c"/><path d="M58,165.74c-.75.07-1.43.15-2,.26a13.93,13.93,0,0,0-2.2.58,2.94,2.94,0,0,0-2,1.58,5.81,5.81,0,0,0-.48,2.31v6.06q0,1.84,0,3c0,.75.06,1.68.11,2.78a44.37,44.37,0,0,1-10.86,4.16,51,51,0,0,1-13.22,1.95,32.2,32.2,0,0,1-10.63-1.72,24.73,24.73,0,0,1-8.71-5.19,24,24,0,0,1-5.9-8.5A29.49,29.49,0,0,1,0,161.34a30.85,30.85,0,0,1,2-11.29,25.07,25.07,0,0,1,5.85-8.94A25.59,25.59,0,0,1,17,135.37a33.74,33.74,0,0,1,11.94-2,29.26,29.26,0,0,1,8.24,1.11,36.66,36.66,0,0,1,6.25,2.35l2.28-2h3.2l.33,19H46q-2.79-8.58-6.7-12.75a12.92,12.92,0,0,0-9.85-4.16,12.14,12.14,0,0,0-10.9,6.18q-3.85,6.18-3.84,17,0,11.52,3.76,18t10.68,6.51a15.92,15.92,0,0,0,5.76-1,12.35,12.35,0,0,0,3.91-2.26v-10.6a4.71,4.71,0,0,0-.48-2.22,3.89,3.89,0,0,0-1.91-1.56,12.42,12.42,0,0,0-2.76-.84c-1.1-.22-2-.38-2.75-.47v-2.87H58Z" style="fill:#59358c"/><path d="M113,148.09h-2.8a19.51,19.51,0,0,0-3.67-6,10,10,0,0,0-5.19-3.59,16.15,16.15,0,0,0-3.06-.31c-1.32,0-2.4-.06-3.26-.06H87.45v20.12h5.36a13.19,13.19,0,0,0,3.67-.48,6.93,6.93,0,0,0,3-1.84,9.32,9.32,0,0,0,1.71-3,17.88,17.88,0,0,0,1.13-3.72h2.79V171h-2.79a18.59,18.59,0,0,0-1.13-3.88,10.56,10.56,0,0,0-1.71-3.22,6.2,6.2,0,0,0-2.87-1.82,13.17,13.17,0,0,0-3.82-.5H87.45v15a15.65,15.65,0,0,0,.35,3.74,3.64,3.64,0,0,0,1.3,2.11,5.29,5.29,0,0,0,2.51.92,33.93,33.93,0,0,0,4.36.22c.86,0,1.88,0,3.08,0a26.81,26.81,0,0,0,3.17-.22,19.76,19.76,0,0,0,2.89-.55,4.31,4.31,0,0,0,2-1.07,29.78,29.78,0,0,0,4-5.5,41.43,41.43,0,0,0,2.9-5.54h2.69l-1,16.25H66.74v-2.86c.68-.05,1.61-.15,2.79-.29a11.23,11.23,0,0,0,2.5-.51,3.63,3.63,0,0,0,1.87-1.49,4.87,4.87,0,0,0,.48-2.3V142.68a5.11,5.11,0,0,0-.4-2.19,3.74,3.74,0,0,0-2-1.57,13.78,13.78,0,0,0-2.68-.81c-1.15-.24-2-.4-2.61-.47v-2.87H113Z" style="fill:#59358c"/><path d="M187,187H167q-5.19-7.93-8.62-12.65t-8.54-10.88h-2v15.85a4.74,4.74,0,0,0,.49,2.25,3.87,3.87,0,0,0,1.9,1.54,13.65,13.65,0,0,0,2.18.61,24.62,24.62,0,0,0,2.56.42V187H127.07v-2.86c.72-.07,1.65-.18,2.81-.31a11.05,11.05,0,0,0,2.48-.5,3.65,3.65,0,0,0,1.88-1.49,5,5,0,0,0,.47-2.3V142.68a5.28,5.28,0,0,0-.4-2.21,3.52,3.52,0,0,0-2-1.55,16.39,16.39,0,0,0-2.78-.81c-1.06-.22-1.91-.38-2.52-.47v-2.87h29.27q9.82,0,14.91,3.07a10.13,10.13,0,0,1,5.09,9.28,12.34,12.34,0,0,1-3.14,8.81q-3.15,3.34-9.58,5.2,2.5,3.24,5.82,7.5t6.94,8.71c.76,1,1.8,2.13,3.11,3.51a9.1,9.1,0,0,0,3.48,2.56,14.16,14.16,0,0,0,2.15.44c.87.12,1.49.2,1.85.22Zm-25-38.79c0-3.49-1-6-2.93-7.64s-4.72-2.41-8.33-2.41h-2.9V160h2.8q5.4,0,8.39-2.83T161.93,148.17Z" style="fill:#59358c"/><path d="M264.84,187H236.57v-2.86c.83-.07,1.85-.2,3.07-.37a10.86,10.86,0,0,0,2.48-.55,4,4,0,0,0,2-1.5,4.57,4.57,0,0,0,.59-2.43v-39L226.72,186.1h-4.64q-.33-1.2-1.64-4.82c-.87-2.4-1.57-4.33-2.11-5.77l-13.21-35.85V171.4a29.78,29.78,0,0,0,.61,6.93,6.35,6.35,0,0,0,2,3.48,9.61,9.61,0,0,0,3.29,1.47,23.27,23.27,0,0,0,3.32.81V187H191.89v-2.86c.62-.07,1.62-.24,3-.5a8.29,8.29,0,0,0,3.4-1.35,5.34,5.34,0,0,0,2-3.47,36.28,36.28,0,0,0,.52-7V146a11.2,11.2,0,0,0-.59-3.92,5.57,5.57,0,0,0-1.76-2.48,7.62,7.62,0,0,0-3-1.47,21.52,21.52,0,0,0-3.13-.44v-2.87h24l12.86,34.38L240,141.26c.37-1,.72-2.26,1.07-3.69a20.11,20.11,0,0,0,.55-2.79h23.11v2.87a22,22,0,0,0-2.46.29,18.58,18.58,0,0,0-2.46.59,3,3,0,0,0-1.9,1.51,5.59,5.59,0,0,0-.46,2.27v37a5,5,0,0,0,.46,2.22,3.87,3.87,0,0,0,1.9,1.56,10.59,10.59,0,0,0,2.4.62c1.12.2,2,.34,2.59.41Z" style="fill:#59358c"/><path d="M331.36,187H302.93v-2.86a36,36,0,0,0,4.65-.72c1.79-.38,2.68-.85,2.68-1.41a4.73,4.73,0,0,0-.05-.67,4.86,4.86,0,0,0-.32-1l-4.45-10.82h-18c-.42,1-.87,2.18-1.38,3.53s-.92,2.55-1.3,3.6a19.83,19.83,0,0,0-.82,3,10.48,10.48,0,0,0-.13,1.29c0,.78.6,1.45,1.78,2a19.66,19.66,0,0,0,5.94,1.2V187H270.14v-2.86a20.78,20.78,0,0,0,2.74-.39,7.27,7.27,0,0,0,2.41-.87,9.13,9.13,0,0,0,2.55-2.16,11.28,11.28,0,0,0,1.75-3.05q4.27-10.33,8.54-20.7T297.61,134H305q7.21,17.72,11.29,28t6.95,17.06a8.82,8.82,0,0,0,1.21,2,7.76,7.76,0,0,0,2.1,1.7,8.18,8.18,0,0,0,2.39.89,18,18,0,0,0,2.46.37Zm-27.42-21.11L296.39,147l-7.44,18.85Z" style="fill:#59358c"/><path d="M396.29,137.65c-.69.07-1.67.21-2.95.4a7.83,7.83,0,0,0-3.46,1.43,5.63,5.63,0,0,0-1.92,3.4,32.73,32.73,0,0,0-.57,7.08v37.28h-6.54l-32.51-40.33V171.4a29.36,29.36,0,0,0,.61,6.93,6.29,6.29,0,0,0,2,3.48,9.11,9.11,0,0,0,3.16,1.44,33.86,33.86,0,0,0,3.46.85V187H335.1v-2.86a22.6,22.6,0,0,0,3.29-.53,8.67,8.67,0,0,0,3.11-1.31,5.43,5.43,0,0,0,2-3.22,33.86,33.86,0,0,0,.54-7.22V147.09a10.54,10.54,0,0,0-.57-3.47,7.17,7.17,0,0,0-1.79-2.81,9.51,9.51,0,0,0-3-2,18.34,18.34,0,0,0-3.8-1.12v-2.94h19.63l28.53,35.28V150.33a28.87,28.87,0,0,0-.62-7,6.42,6.42,0,0,0-2-3.4,9.3,9.3,0,0,0-3.16-1.45,32.74,32.74,0,0,0-3.38-.83v-2.87h22.39Z" style="fill:#59358c"/><path d="M487.77,137.72a10.1,10.1,0,0,0-2.28.5,15.38,15.38,0,0,0-2.25,1,6.77,6.77,0,0,0-2.41,2.1,14.65,14.65,0,0,0-1.3,2.76q-2,5.58-6.23,17.9t-8.78,25.6H457.1l-13.73-38.76L431,187.54h-7.42q-6.14-17.87-9.42-27.52t-5.52-16.2a7.7,7.7,0,0,0-1.58-2.89,14.39,14.39,0,0,0-2.28-1.82,7.29,7.29,0,0,0-2.11-1,17.88,17.88,0,0,0-2.6-.5v-2.87h27.84v2.79q-2.46.29-3.67.57a12,12,0,0,0-1.91.57,1.55,1.55,0,0,0-.81.63,1.48,1.48,0,0,0-.15.59,3.8,3.8,0,0,0,.12,1c.09.32.18.69.28,1.1q.89,2.88,3.56,10.88t6.62,19.87l11.91-38h7.8L465.36,174q3.06-9.45,4.88-15.44t3.07-10.26q.73-2.61,1.18-4.37a13.06,13.06,0,0,0,.44-3.05,1.63,1.63,0,0,0-.72-1.32,6.44,6.44,0,0,0-1.92-1,14.88,14.88,0,0,0-2.65-.53c-1.09-.14-2-.24-2.84-.32v-2.94h21Z" style="fill:#59358c"/><path d="M536.43,187H508v-2.86a36.7,36.7,0,0,0,4.66-.72c1.79-.38,2.68-.85,2.68-1.41a6.16,6.16,0,0,0,0-.67,5.67,5.67,0,0,0-.31-1l-4.46-10.82h-18c-.42,1-.87,2.18-1.37,3.53s-.94,2.55-1.3,3.6a18.44,18.44,0,0,0-.82,3,9.27,9.27,0,0,0-.13,1.29q0,1.17,1.78,2a19.62,19.62,0,0,0,5.93,1.2V187H475.2v-2.86a20,20,0,0,0,2.73-.39,7.16,7.16,0,0,0,2.41-.87,9.26,9.26,0,0,0,2.56-2.16,11.6,11.6,0,0,0,1.74-3.05l8.55-20.7q4.29-10.38,9.47-22.87H510q7.19,17.72,11.29,28t6.95,17.06a8.59,8.59,0,0,0,1.21,2,7.68,7.68,0,0,0,2.1,1.7,8.14,8.14,0,0,0,2.38.89,18.35,18.35,0,0,0,2.47.37ZM509,165.84,501.45,147,494,165.84Z" style="fill:#59358c"/><path d="M585.1,149.71h-2.87a31.73,31.73,0,0,0-3.64-7.17q-2.52-3.82-4.64-4.12c-.79-.09-1.75-.18-2.9-.25s-2.15-.12-3-.12h-1.73V179a5.36,5.36,0,0,0,.48,2.33,3.37,3.37,0,0,0,1.88,1.6,16.06,16.06,0,0,0,2.62.69c1.2.23,2.21.39,3,.5V187H545.29v-2.86l3-.31a11.18,11.18,0,0,0,2.63-.5,3.38,3.38,0,0,0,1.9-1.58,5.26,5.26,0,0,0,.49-2.35V138h-1.73c-.82,0-1.82,0-3,.12s-2.11.16-2.9.25q-2.13.3-4.63,4.12a31.82,31.82,0,0,0-3.65,7.17h-2.87V134.78H585.1Z" style="fill:#59358c"/><path d="M621.5,188.39a30.56,30.56,0,0,1-10.74-1.86,25.18,25.18,0,0,1-8.71-5.39,24.46,24.46,0,0,1-5.74-8.56,29.22,29.22,0,0,1-2.1-11.22,29.53,29.53,0,0,1,2.11-11.25,26.86,26.86,0,0,1,5.94-9,26.11,26.11,0,0,1,9-5.76,30.75,30.75,0,0,1,11.24-2,27.55,27.55,0,0,1,7.91,1.07,32,32,0,0,1,6,2.39l2.29-2h3.2l.32,19H639q-2.76-8.73-6.62-12.82a12.43,12.43,0,0,0-9.4-4.09,11.51,11.51,0,0,0-10.5,6.1q-3.6,6.1-3.6,17.11a39.53,39.53,0,0,0,1.23,10.62,21.69,21.69,0,0,0,3.21,7.09,13.09,13.09,0,0,0,5,4.11,16.45,16.45,0,0,0,15.6-1.49,26.23,26.23,0,0,0,7.32-8.46l3.16,1.91a31.86,31.86,0,0,1-3.61,5.79,21.66,21.66,0,0,1-4.67,4.4,24.41,24.41,0,0,1-6.41,3.16A26.89,26.89,0,0,1,621.5,188.39Z" style="fill:#59358c"/><path d="M717.72,187h-28.2v-2.86l2.68-.22a8.78,8.78,0,0,0,2.43-.44A3.63,3.63,0,0,0,696.5,182a4.56,4.56,0,0,0,.52-2.3v-18H674.74v17.58a4.76,4.76,0,0,0,.53,2.25,3.59,3.59,0,0,0,1.81,1.54,13.74,13.74,0,0,0,2.4.62,24,24,0,0,0,2.76.41V187H654v-2.86c.6,0,1.52-.1,2.7-.24a12.68,12.68,0,0,0,2.6-.5,3.23,3.23,0,0,0,1.84-1.45,4.9,4.9,0,0,0,.51-2.29V142.68a4.71,4.71,0,0,0-.45-2.17,3.94,3.94,0,0,0-1.89-1.54,15.51,15.51,0,0,0-2.79-.86,23.22,23.22,0,0,0-2.51-.46v-2.87h28.2v2.87a23.5,23.5,0,0,0-2.72.36c-1.05.2-1.86.38-2.43.55a2.93,2.93,0,0,0-1.88,1.53,5.44,5.44,0,0,0-.46,2.22v15.6H697V142.68a4.47,4.47,0,0,0-.48-2.17,4,4,0,0,0-1.91-1.54,14.61,14.61,0,0,0-2.55-.83,21.19,21.19,0,0,0-2.56-.5v-2.87h28.2v2.87a26,26,0,0,0-2.64.31,19.39,19.39,0,0,0-2.65.61,3,3,0,0,0-1.88,1.51,5.4,5.4,0,0,0-.48,2.23v37a5,5,0,0,0,.48,2.25,3.78,3.78,0,0,0,1.88,1.54,12.47,12.47,0,0,0,2.55.66c1.12.19,2,.31,2.74.37Z" style="fill:#59358c"/></svg>