<?xml version="1.0" encoding="UTF-8" standalone="no"?>
<svg
   width="808.3pt"
   height="199.65pt"
   viewBox="0 0 808.3 199.65"
   version="1.1"
   id="svg78"
   xmlns="http://www.w3.org/2000/svg"
   xmlns:svg="http://www.w3.org/2000/svg">
  <defs
     id="defs20">
    <clipPath
       id="clip-0">
      <path
         clip-rule="nonzero"
         d="M 82 50 L 183 50 L 183 151 L 82 151 Z M 82 50 "
         id="path2" />
    </clipPath>
    <clipPath
       id="clip-1">
      <path
         clip-rule="evenodd"
         d="M 182.5625 100.355469 C 182.5625 127.96875 160.179688 150.355469 132.5625 150.355469 C 104.949219 150.355469 82.5625 127.96875 82.5625 100.355469 C 82.5625 72.742188 104.949219 50.355469 132.5625 50.355469 C 160.179688 50.355469 182.5625 72.742188 182.5625 100.355469 "
         id="path5" />
    </clipPath>
    <clipPath
       id="clip-2">
      <path
         clip-rule="nonzero"
         d="M 82.230469 50.355469 L 183 50.355469 L 183 150.355469 L 82.230469 150.355469 Z M 82.230469 50.355469 "
         id="path8" />
    </clipPath>
    <clipPath
       id="clip-3">
      <path
         clip-rule="evenodd"
         d="M 182.5625 100.355469 C 182.5625 127.96875 160.179688 150.355469 132.5625 150.355469 C 104.949219 150.355469 82.5625 127.96875 82.5625 100.355469 C 82.5625 72.742188 104.949219 50.355469 132.5625 50.355469 C 160.179688 50.355469 182.5625 72.742188 182.5625 100.355469 "
         id="path11" />
    </clipPath>
    <clipPath
       id="clip-4">
      <path
         clip-rule="nonzero"
         d="M 215 83 L 388 83 L 388 118 L 215 118 Z M 215 83 "
         id="path14" />
    </clipPath>
    <clipPath
       id="clip-5">
      <path
         clip-rule="evenodd"
         d="M 215.898438 116.5625 L 215.898438 84.132812 L 228.808594 84.132812 C 232.492188 84.132812 235.355469 85.058594 237.398438 86.910156 C 239.4375 88.765625 240.460938 91.285156 240.460938 94.472656 C 240.460938 96.574219 239.960938 98.402344 238.960938 99.960938 C 237.960938 101.519531 236.566406 102.703125 234.777344 103.515625 L 241.660156 116.5625 L 234.113281 116.5625 L 227.941406 104.625 L 222.734375 104.625 L 222.734375 116.5625 Z M 222.734375 99.476562 L 228.097656 99.476562 C 229.855469 99.476562 231.179688 99.039062 232.0625 98.164062 C 232.945312 97.285156 233.386719 96.105469 233.386719 94.617188 C 233.386719 93.097656 232.945312 91.902344 232.0625 91.035156 C 231.179688 90.171875 229.914062 89.738281 228.273438 89.738281 L 222.734375 89.738281 Z M 253.671875 116.5625 L 253.671875 84.132812 L 275.457031 84.132812 L 275.457031 89.785156 L 260.507812 89.785156 L 260.507812 97.515625 L 274.335938 97.515625 L 274.335938 103.167969 L 260.507812 103.167969 L 260.507812 110.910156 L 275.519531 110.910156 L 275.519531 116.5625 Z M 306.773438 93.460938 C 306.648438 92.183594 306.101562 91.191406 305.140625 90.484375 C 304.179688 89.773438 302.882812 89.421875 301.25 89.421875 C 299.574219 89.421875 298.292969 89.765625 297.398438 90.449219 C 296.503906 91.136719 296.054688 92.003906 296.054688 93.046875 C 296.035156 94.210938 296.53125 95.089844 297.546875 95.683594 C 298.5625 96.28125 299.769531 96.742188 301.171875 97.070312 L 304.074219 97.765625 C 305.949219 98.1875 307.613281 98.800781 309.070312 99.605469 C 310.527344 100.40625 311.671875 101.4375 312.503906 102.699219 C 313.335938 103.960938 313.757812 105.496094 313.765625 107.300781 C 313.757812 110.265625 312.648438 112.628906 310.445312 114.386719 C 308.238281 116.144531 305.164062 117.023438 301.21875 117.023438 C 297.292969 117.023438 294.160156 116.125 291.824219 114.332031 C 289.488281 112.535156 288.277344 109.886719 288.195312 106.382812 L 294.808594 106.382812 C 294.925781 108.007812 295.5625 109.230469 296.726562 110.046875 C 297.890625 110.867188 299.359375 111.273438 301.140625 111.273438 C 302.875 111.273438 304.261719 110.90625 305.296875 110.167969 C 306.335938 109.425781 306.859375 108.464844 306.867188 107.285156 C 306.859375 106.1875 306.378906 105.34375 305.433594 104.75 C 304.484375 104.160156 303.132812 103.652344 301.375 103.230469 L 297.855469 102.34375 C 295.128906 101.6875 292.976562 100.648438 291.398438 99.222656 C 289.820312 97.800781 289.035156 95.894531 289.046875 93.507812 C 289.035156 91.542969 289.558594 89.824219 290.617188 88.351562 C 291.675781 86.878906 293.128906 85.734375 294.972656 84.917969 C 296.820312 84.097656 298.929688 83.6875 301.296875 83.6875 C 303.695312 83.6875 305.792969 84.101562 307.585938 84.925781 C 309.382812 85.746094 310.777344 86.894531 311.777344 88.367188 C 312.777344 89.839844 313.292969 91.539062 313.324219 93.460938 Z M 326.679688 116.5625 L 326.679688 84.132812 L 348.464844 84.132812 L 348.464844 89.785156 L 333.515625 89.785156 L 333.515625 97.515625 L 347.34375 97.515625 L 347.34375 103.167969 L 333.515625 103.167969 L 333.515625 110.910156 L 348.527344 110.910156 L 348.527344 116.5625 Z M 361.011719 89.785156 L 361.011719 84.132812 L 387.5625 84.132812 L 387.5625 89.785156 L 377.667969 89.785156 L 377.667969 116.5625 L 370.910156 116.5625 L 370.910156 89.785156 Z M 361.011719 89.785156 "
         id="path17" />
    </clipPath>
  </defs>
  <path
     fill-rule="evenodd"
     fill="rgb(46.263123%, 84.764099%, 83.201599%)"
     fill-opacity="1"
     d="M 149.230469 100.355469 C 149.230469 127.96875 126.84375 150.355469 99.230469 150.355469 C 71.617188 150.355469 49.230469 127.96875 49.230469 100.355469 C 49.230469 72.742188 71.617188 50.355469 99.230469 50.355469 C 126.84375 50.355469 149.230469 72.742188 149.230469 100.355469 "
     id="path22" />
  <path
     fill-rule="evenodd"
     fill="rgb(38.426208%, 83.59375%, 30.979919%)"
     fill-opacity="1"
     d="M 182.5625 100.355469 C 182.5625 127.96875 160.179688 150.355469 132.5625 150.355469 C 104.949219 150.355469 82.5625 127.96875 82.5625 100.355469 C 82.5625 72.742188 104.949219 50.355469 132.5625 50.355469 C 160.179688 50.355469 182.5625 72.742188 182.5625 100.355469 "
     id="path24" />
  <g
     clip-path="url(#clip-0)"
     id="g30">
    <g
       clip-path="url(#clip-1)"
       id="g28">
      <path
         fill-rule="nonzero"
         fill="rgb(38.426208%, 83.59375%, 30.979919%)"
         fill-opacity="1"
         d="M 82.230469 150.355469 L 183.230469 150.355469 L 183.230469 50.355469 L 82.230469 50.355469 L 82.230469 150.355469 "
         id="path26" />
    </g>
  </g>
  <g
     clip-path="url(#clip-2)"
     id="g36">
    <g
       clip-path="url(#clip-3)"
       id="g34">
      <path
         fill-rule="nonzero"
         fill="rgb(38.426208%, 83.59375%, 30.979919%)"
         fill-opacity="1"
         d="M 77.5625 45.355469 L 187.5625 45.355469 L 187.5625 155.355469 L 77.5625 155.355469 L 77.5625 45.355469 "
         id="path32" />
    </g>
  </g>
  <path
     fill-rule="evenodd"
     fill="rgb(34.104919%, 68.943787%, 31.37207%)"
     fill-opacity="1"
     d="M 115.898438 147.5 C 135.316406 140.632812 149.230469 122.125 149.230469 100.355469 C 149.230469 78.585938 135.316406 60.078125 115.898438 53.210938 C 96.480469 60.078125 82.5625 78.585938 82.5625 100.355469 C 82.5625 122.125 96.480469 140.632812 115.898438 147.5 "
     id="path38" />
  <g
     clip-path="url(#clip-4)"
     id="g44">
    <g
       clip-path="url(#clip-5)"
       id="g42">
      <path
         fill-rule="nonzero"
         fill="rgb(0%, 23.535156%, 11.376953%)"
         fill-opacity="1"
         d="M 210.898438 78.6875 L 392.5625 78.6875 L 392.5625 122.023438 L 210.898438 122.023438 L 210.898438 78.6875 "
         id="path40" />
    </g>
  </g>
  <path
     fill-rule="evenodd"
     fill="rgb(0%, 23.535156%, 11.376953%)"
     fill-opacity="1"
     d="M 746.140625 109.121094 C 746.140625 112 743.128906 113.664062 740.203125 113.664062 C 736.113281 113.664062 733.683594 110.695312 733.683594 106.152344 L 733.683594 102.28125 C 733.683594 97.742188 736.113281 94.773438 740.203125 94.773438 C 743.128906 94.773438 746.140625 96.4375 746.140625 99.316406 Z M 750.144531 112.71875 L 750.144531 81.1875 L 742.769531 82.585938 L 742.769531 84.203125 L 746.140625 84.832031 L 746.140625 96.078125 L 745.964844 96.078125 C 744.929688 93.871094 742.722656 92.074219 739.035156 92.074219 C 733.1875 92.074219 729.320312 96.347656 729.320312 104.21875 C 729.320312 112.089844 733.1875 116.359375 739.035156 116.359375 C 742.722656 116.359375 744.972656 114.605469 745.964844 112.402344 L 746.140625 112.402344 L 746.140625 116.359375 L 753.519531 114.964844 L 753.519531 113.347656 L 750.144531 112.71875 "
     id="path46" />
  <path
     fill-rule="evenodd"
     fill="rgb(0%, 23.535156%, 11.376953%)"
     fill-opacity="1"
     d="M 720.058594 106.78125 C 720.058594 110.875 718.121094 114.023438 713.625 114.023438 C 709.128906 114.023438 707.195312 110.875 707.195312 106.78125 L 707.195312 101.652344 C 707.195312 97.5625 709.128906 94.410156 713.625 94.410156 C 718.121094 94.410156 720.058594 97.5625 720.058594 101.652344 Z M 713.625 92.074219 C 707.058594 92.074219 702.652344 96.886719 702.652344 104.21875 C 702.652344 111.546875 707.058594 116.359375 713.625 116.359375 C 720.191406 116.359375 724.597656 111.546875 724.597656 104.21875 C 724.597656 96.886719 720.191406 92.074219 713.625 92.074219 "
     id="path48" />
  <path
     fill-rule="evenodd"
     fill="rgb(0%, 23.535156%, 11.376953%)"
     fill-opacity="1"
     d="M 693.609375 106.78125 C 693.609375 110.875 691.675781 114.023438 687.179688 114.023438 C 682.683594 114.023438 680.75 110.875 680.75 106.78125 L 680.75 101.652344 C 680.75 97.5625 682.683594 94.410156 687.179688 94.410156 C 691.675781 94.410156 693.609375 97.5625 693.609375 101.652344 Z M 687.179688 92.074219 C 680.613281 92.074219 676.207031 96.886719 676.207031 104.21875 C 676.207031 111.546875 680.613281 116.359375 687.179688 116.359375 C 693.746094 116.359375 698.152344 111.546875 698.152344 104.21875 C 698.152344 96.886719 693.746094 92.074219 687.179688 92.074219 "
     id="path50" />
  <path
     fill-rule="evenodd"
     fill="rgb(0%, 23.535156%, 11.376953%)"
     fill-opacity="1"
     d="M 656.730469 116.359375 C 648.726562 116.359375 643.375 110.199219 643.375 100.125 C 643.375 89.691406 648.726562 83.886719 657.136719 83.886719 C 662.039062 83.886719 664.648438 85.417969 665.410156 87.214844 L 665.636719 87.214844 L 665.636719 84.429688 L 669.101562 84.429688 L 669.101562 93.601562 L 665.636719 93.601562 L 665.636719 91.488281 C 665.636719 88.160156 662.625 86.40625 657.722656 86.40625 C 651.066406 86.40625 648.097656 90.726562 648.097656 97.019531 L 648.097656 103.136719 C 648.097656 109.390625 651.738281 113.574219 657.226562 113.574219 C 661.859375 113.574219 665.277344 111.234375 665.277344 106.960938 L 665.277344 102.777344 L 659.65625 102.777344 L 659.65625 100.617188 L 672.382812 100.617188 L 672.382812 102.777344 L 669.503906 102.777344 L 669.503906 115.820312 L 667.929688 115.820312 L 665.546875 111.546875 L 665.367188 111.546875 C 664.421875 113.796875 661.636719 116.359375 656.730469 116.359375 "
     id="path52" />
  <path
     fill-rule="evenodd"
     fill="rgb(0%, 23.535156%, 11.376953%)"
     fill-opacity="1"
     d="M 612.34375 115.820312 L 612.34375 113.664062 L 615.714844 113.664062 L 615.714844 95.71875 L 612.34375 95.085938 L 612.34375 93.46875 L 619.582031 92.074219 L 619.582031 96.078125 L 619.808594 96.078125 C 620.707031 94.1875 622.328125 92.074219 625.609375 92.074219 C 628.351562 92.074219 630.242188 93.421875 630.242188 95.941406 C 630.242188 97.832031 629.164062 98.953125 627.632812 98.953125 C 625.925781 98.953125 624.800781 97.921875 624.800781 96.527344 C 624.800781 95.222656 625.429688 94.410156 626.148438 94.324219 L 626.148438 94.230469 C 625.878906 94.1875 625.5625 94.144531 624.980469 94.144531 C 622.460938 94.144531 619.71875 96.839844 619.71875 99.269531 L 619.71875 113.664062 L 623.988281 113.664062 L 623.988281 115.820312 L 612.34375 115.820312 "
     id="path54" />
  <path
     fill-rule="evenodd"
     fill="rgb(0%, 23.535156%, 11.376953%)"
     fill-opacity="1"
     d="M 603.527344 106.78125 C 603.527344 110.875 601.59375 114.023438 597.09375 114.023438 C 592.597656 114.023438 590.664062 110.875 590.664062 106.78125 L 590.664062 101.652344 C 590.664062 97.5625 592.597656 94.410156 597.09375 94.410156 C 601.59375 94.410156 603.527344 97.5625 603.527344 101.652344 Z M 597.09375 92.074219 C 590.527344 92.074219 586.121094 96.886719 586.121094 104.21875 C 586.121094 111.546875 590.527344 116.359375 597.09375 116.359375 C 603.660156 116.359375 608.070312 111.546875 608.070312 104.21875 C 608.070312 96.886719 603.660156 92.074219 597.09375 92.074219 "
     id="path56" />
  <path
     fill-rule="evenodd"
     fill="rgb(0%, 23.535156%, 11.376953%)"
     fill-opacity="1"
     d="M 539.933594 115.820312 L 539.933594 113.664062 L 543.304688 113.664062 L 543.304688 84.832031 L 539.933594 84.203125 L 539.933594 82.585938 L 547.308594 81.1875 L 547.308594 113.664062 L 550.683594 113.664062 L 550.683594 115.820312 L 539.933594 115.820312 "
     id="path58" />
  <path
     fill-rule="evenodd"
     fill="rgb(0%, 23.535156%, 11.376953%)"
     fill-opacity="1"
     d="M 529.410156 109.390625 C 529.410156 112.359375 527.070312 113.753906 524.238281 113.753906 C 521.449219 113.753906 519.785156 112.582031 519.785156 110.335938 L 519.785156 109.433594 C 519.785156 106.601562 521.359375 105.117188 526.53125 105.117188 L 529.410156 105.117188 Z M 533.410156 113.753906 L 533.410156 99.269531 C 533.410156 94.726562 530.441406 92.074219 525.496094 92.074219 C 519.828125 92.074219 516.636719 94.683594 516.636719 97.335938 C 516.636719 99.136719 517.714844 100.082031 519.246094 100.082031 C 520.863281 100.082031 521.898438 99.136719 521.898438 97.472656 C 521.898438 96.121094 521.089844 95.445312 520.367188 95.042969 L 520.367188 94.953125 C 521.222656 94.503906 522.664062 94.230469 524.054688 94.230469 C 527.609375 94.230469 529.410156 96.257812 529.410156 99.855469 L 529.410156 103.183594 L 526.125 103.183594 C 518.300781 103.183594 515.511719 105.566406 515.511719 110.0625 C 515.511719 113.933594 518.164062 116.359375 522.527344 116.359375 C 526.710938 116.359375 528.511719 114.472656 529.410156 112.449219 L 529.636719 112.449219 L 529.636719 112.582031 C 529.636719 114.878906 531.027344 116.359375 533.503906 116.359375 C 534.941406 116.359375 536.109375 115.957031 536.785156 115.460938 L 536.785156 113.753906 L 533.410156 113.753906 "
     id="path60" />
  <path
     fill-rule="evenodd"
     fill="rgb(0%, 23.535156%, 11.376953%)"
     fill-opacity="1"
     d="M 506.382812 116.089844 C 502.964844 116.089844 501.886719 114.878906 501.886719 111.59375 L 501.886719 94.953125 L 498.871094 94.953125 L 498.871094 92.613281 L 499.230469 92.613281 C 501.839844 92.613281 502.199219 91.9375 502.605469 90.589844 L 503.726562 86.585938 L 505.886719 86.585938 L 505.886719 92.613281 L 511.960938 92.613281 L 511.960938 94.953125 L 505.886719 94.953125 L 505.886719 113.484375 L 511.960938 113.484375 L 511.960938 115.054688 C 510.925781 115.640625 508.539062 116.089844 506.382812 116.089844 "
     id="path62" />
  <path
     fill-rule="evenodd"
     fill="rgb(0%, 23.535156%, 11.376953%)"
     fill-opacity="1"
     d="M 484.613281 115.820312 L 484.613281 113.664062 L 487.988281 113.664062 L 487.988281 95.71875 L 484.613281 95.085938 L 484.613281 93.46875 L 491.988281 92.074219 L 491.988281 113.664062 L 495.363281 113.664062 L 495.363281 115.820312 L 484.613281 115.820312 "
     id="path64" />
  <path
     fill-rule="evenodd"
     fill="rgb(0%, 23.535156%, 11.376953%)"
     fill-opacity="1"
     d="M 489.964844 87.394531 C 488.347656 87.394531 487.402344 86.269531 487.402344 84.921875 L 487.402344 84.652344 C 487.402344 83.304688 488.347656 82.179688 489.964844 82.179688 C 491.585938 82.179688 492.527344 83.304688 492.527344 84.652344 L 492.527344 84.921875 C 492.527344 86.269531 491.585938 87.394531 489.964844 87.394531 "
     id="path66" />
  <path
     fill-rule="evenodd"
     fill="rgb(0%, 23.535156%, 11.376953%)"
     fill-opacity="1"
     d="M 470.535156 123.015625 L 468.378906 123.015625 C 464.914062 123.015625 462.664062 121.894531 462.664062 119.554688 C 462.664062 117.933594 463.429688 116.539062 465.320312 115.640625 L 472.515625 115.640625 C 476.382812 115.640625 477.777344 116.8125 477.777344 119.015625 C 477.777344 121.441406 475.035156 123.015625 470.535156 123.015625 Z M 464.554688 100.574219 L 464.554688 98.863281 C 464.554688 95.894531 466.21875 94.097656 469.457031 94.097656 C 472.648438 94.097656 474.3125 95.894531 474.3125 98.863281 L 474.3125 100.574219 C 474.3125 103.542969 472.648438 105.34375 469.410156 105.34375 C 466.21875 105.34375 464.554688 103.542969 464.554688 100.574219 Z M 473.144531 111.773438 L 467.746094 111.773438 C 465.09375 111.773438 463.96875 111.324219 463.96875 109.792969 C 463.96875 108.445312 465.453125 107.410156 467.027344 107.140625 C 467.792969 107.277344 468.558594 107.367188 469.410156 107.367188 C 474.675781 107.367188 478.589844 104.441406 478.589844 99.71875 C 478.589844 97.425781 477.730469 96.03125 477.011719 95.132812 L 477.011719 93.109375 L 477.148438 93.109375 C 477.640625 93.691406 478.40625 93.964844 479.171875 93.964844 C 480.699219 93.964844 481.601562 93.0625 481.601562 91.757812 C 481.601562 90.363281 480.566406 89.511719 479.171875 89.511719 C 477.417969 89.511719 475.800781 90.410156 475.753906 93.964844 C 474.3125 92.929688 472.289062 92.074219 469.410156 92.074219 C 464.148438 92.074219 460.28125 94.996094 460.28125 99.71875 C 460.28125 103.003906 462.128906 105.386719 465.007812 106.554688 L 465.007812 106.78125 C 462.9375 107.367188 461.09375 108.714844 461.09375 111.097656 C 461.09375 113.078125 462.128906 114.335938 464.015625 115.011719 L 464.015625 115.191406 C 461.632812 115.820312 459.15625 117.394531 459.15625 119.777344 C 459.15625 123.152344 461.8125 125.355469 469.230469 125.355469 C 477.011719 125.355469 481.105469 122.386719 481.105469 118.023438 C 481.105469 114.023438 478.496094 111.773438 473.144531 111.773438 "
     id="path68" />
  <path
     fill-rule="evenodd"
     fill="rgb(0%, 23.535156%, 11.376953%)"
     fill-opacity="1"
     d="M 444.902344 115.820312 L 444.902344 113.664062 L 448.273438 113.664062 L 448.273438 95.71875 L 444.902344 95.085938 L 444.902344 93.46875 L 452.277344 92.074219 L 452.277344 113.664062 L 455.648438 113.664062 L 455.648438 115.820312 L 444.902344 115.820312 "
     id="path70" />
  <path
     fill-rule="evenodd"
     fill="rgb(0%, 23.535156%, 11.376953%)"
     fill-opacity="1"
     d="M 450.253906 87.394531 C 448.632812 87.394531 447.6875 86.269531 447.6875 84.921875 L 447.6875 84.652344 C 447.6875 83.304688 448.632812 82.179688 450.253906 82.179688 C 451.871094 82.179688 452.816406 83.304688 452.816406 84.652344 L 452.816406 84.921875 C 452.816406 86.269531 451.871094 87.394531 450.253906 87.394531 "
     id="path72" />
  <path
     fill-rule="evenodd"
     fill="rgb(0%, 23.535156%, 11.376953%)"
     fill-opacity="1"
     d="M 435.679688 102.914062 C 435.679688 109.210938 431.769531 113.480469 425.652344 113.480469 L 420.210938 113.480469 L 420.210938 86.765625 L 425.652344 86.765625 C 431.769531 86.765625 435.679688 91.039062 435.679688 97.335938 Z M 426.101562 84.429688 L 412.5625 84.429688 L 412.5625 86.585938 L 415.980469 86.585938 L 415.980469 113.664062 L 412.5625 113.664062 L 412.5625 115.820312 L 426.101562 115.820312 C 434.554688 115.820312 440.402344 110.648438 440.402344 100.125 C 440.402344 89.601562 434.554688 84.429688 426.101562 84.429688 "
     id="path74" />
  <path
     fill-rule="nonzero"
     fill="rgb(0%, 23.535156%, 11.376953%)"
     fill-opacity="1"
     d="M 570.269531 113.753906 L 573.707031 113.753906 L 573.707031 94.789062 L 570.269531 94.789062 L 570.269531 92.632812 L 573.707031 92.632812 L 573.707031 88.988281 C 573.707031 87.910156 573.890625 86.921875 574.265625 86.023438 C 574.636719 85.125 575.152344 84.355469 575.820312 83.710938 C 576.484375 83.066406 577.277344 82.5625 578.191406 82.203125 C 579.101562 81.84375 580.101562 81.664062 581.1875 81.664062 C 582.859375 81.664062 584.183594 81.976562 585.160156 82.601562 C 586.136719 83.226562 586.621094 84.117188 586.621094 85.277344 C 586.621094 86.054688 586.398438 86.671875 585.949219 87.128906 C 585.5 87.59375 584.917969 87.820312 584.207031 87.820312 C 583.523438 87.820312 582.976562 87.613281 582.554688 87.191406 C 582.136719 86.773438 581.929688 86.265625 581.929688 85.664062 C 581.929688 84.617188 582.347656 83.929688 583.183594 83.597656 L 583.183594 83.507812 C 582.96875 83.449219 582.71875 83.402344 582.441406 83.371094 C 582.160156 83.34375 581.851562 83.328125 581.511719 83.328125 C 580.210938 83.328125 579.21875 83.78125 578.539062 84.683594 C 577.855469 85.585938 577.515625 86.851562 577.515625 88.476562 L 577.515625 92.632812 L 582.71875 92.632812 L 582.71875 94.789062 L 577.515625 94.789062 L 577.515625 113.753906 L 581.882812 113.753906 L 581.882812 115.820312 L 570.269531 115.820312 L 570.269531 113.753906 "
     id="path76" />
</svg>
