<svg xmlns="http://www.w3.org/2000/svg" width="41.997" height="38.34" viewBox="0 0 41.997 38.34"><path d="M21.06,38.64a2.193,2.193,0,0,1-2.67.63c-6.04-2.88-5.78-2.21-5.85-5.54l-3.4-1.58c.06,2.76-.41,6.25,3.22,7.98,4.85,2.31,5.35,2.71,6.94,2.71,3.1,0,4.41-2.15,5.42-3.45l-3.13-1.45ZM34.78,4.83c-2.07,0-4,1.17-5.62,3.17L4.45,19.65a7.26,7.26,0,0,0,0,8.7L29.16,40c1.61,2,3.54,3.17,5.62,3.17C40.43,43.17,45,34.59,45,24S40.43,4.83,34.78,4.83Zm-9.6,12.69L8.32,22.98a1.088,1.088,0,0,1-1.38-.71,1.106,1.106,0,0,1,.59-1.34l19.23-8.76A26.211,26.211,0,0,0,25.18,17.52Zm9.6,22.21C31.65,39.73,28,32.86,28,24S31.64,8.27,34.78,8.27,41.56,15.14,41.56,24,37.92,39.73,34.78,39.73ZM30.41,19.04a1.225,1.225,0,0,0-.19.02,15.356,15.356,0,0,0-.74,4.29c-.01.2-.01.4-.01.61a14.868,14.868,0,0,0,.81,4.99c.04,0,.08.01.13.01a4.96,4.96,0,0,0,0-9.92Z" transform="translate(-3.003 -4.83)"/></svg>