<svg xmlns="http://www.w3.org/2000/svg" width="1920" height="1080"><path d="M956,638L1071,903L1140,559Z" fill="#868686" stroke="#868686" stroke-width="1.51"/><path d="M1071,903L1398,923L1140,559Z" fill="#787878" stroke="#787878" stroke-width="1.51"/><path d="M956,638L757,780L1071,903Z" fill="#878787" stroke="#878787" stroke-width="1.51"/><path d="M1398,923L1411,457L1140,559Z" fill="#7d7d7d" stroke="#7d7d7d" stroke-width="1.51"/><path d="M1140,559L793,258L956,638Z" fill="#9a9a9a" stroke="#9a9a9a" stroke-width="1.51"/><path d="M956,638L793,258L757,780Z" fill="#9b9b9b" stroke="#9b9b9b" stroke-width="1.51"/><path d="M1411,457L1195,282L1140,559Z" fill="#909090" stroke="#909090" stroke-width="1.51"/><path d="M1071,903L1157,1199L1398,923Z" fill="#6a6a6a" stroke="#6a6a6a" stroke-width="1.51"/><path d="M687,1153L1157,1199L1071,903Z" fill="#6e6e6e" stroke="#6e6e6e" stroke-width="1.51"/><path d="M1398,923L1593,809L1411,457Z" fill="#707070" stroke="#707070" stroke-width="1.51"/><path d="M1796,1153L1593,809L1398,923Z" fill="#5b5b5b" stroke="#5b5b5b" stroke-width="1.51"/><path d="M757,780L687,1153L1071,903Z" fill="#808080" stroke="#808080" stroke-width="1.51"/><path d="M406,596L560,885L757,780Z" fill="#9b9b9b" stroke="#9b9b9b" stroke-width="1.51"/><path d="M1195,282L793,258L1140,559Z" fill="#9f9f9f" stroke="#9f9f9f" stroke-width="1.51"/><path d="M560,885L687,1153L757,780Z" fill="#898989" stroke="#898989" stroke-width="1.51"/><path d="M1157,1199L1380,1259L1398,923Z" fill="#5b5b5b" stroke="#5b5b5b" stroke-width="1.51"/><path d="M1051,1376L1380,1259L1157,1199Z" fill="#515151" stroke="#515151" stroke-width="1.51"/><path d="M1593,809L1733,666L1411,457Z" fill="#717171" stroke="#717171" stroke-width="1.51"/><path d="M1411,457L1531,221L1195,282Z" fill="#929292" stroke="#929292" stroke-width="1.51"/><path d="M1796,1153L1733,666L1593,809Z" fill="#5b5b5b" stroke="#5b5b5b" stroke-width="1.51"/><path d="M687,1153L1051,1376L1157,1199Z" fill="#5f5f5f" stroke="#5f5f5f" stroke-width="1.51"/><path d="M1719,391L1531,221L1411,457Z" fill="#868686" stroke="#868686" stroke-width="1.51"/><path d="M1195,282L1089,57L793,258Z" fill="#ababab" stroke="#ababab" stroke-width="1.51"/><path d="M1373,-116L1089,57L1195,282Z" fill="#a8a8a8" stroke="#a8a8a8" stroke-width="1.51"/><path d="M560,885L493,1037L687,1153Z" fill="#888888" stroke="#888888" stroke-width="1.51"/><path d="M687,1153L766,1386L1051,1376Z" fill="#606060" stroke="#606060" stroke-width="1.51"/><path d="M164,824L493,1037L560,885Z" fill="#969696" stroke="#969696" stroke-width="1.51"/><path d="M1733,666L1719,391L1411,457Z" fill="#787878" stroke="#787878" stroke-width="1.51"/><path d="M793,258L406,596L757,780Z" fill="#a6a6a6" stroke="#a6a6a6" stroke-width="1.51"/><path d="M501,1482L766,1386L687,1153Z" fill="#666666" stroke="#666666" stroke-width="1.51"/><path d="M1380,1259L1601,1314L1398,923Z" fill="#515151" stroke="#515151" stroke-width="1.51"/><path d="M1489,1426L1601,1314L1380,1259Z" fill="#414141" stroke="#414141" stroke-width="1.51"/><path d="M501,1482L1489,1426L1051,1376Z" fill="#4f4f4f" stroke="#4f4f4f" stroke-width="1.51"/><path d="M1051,1376L1489,1426L1380,1259Z" fill="#474747" stroke="#474747" stroke-width="1.51"/><path d="M793,258L418,237L406,596Z" fill="#b9b9b9" stroke="#b9b9b9" stroke-width="1.51"/><path d="M1089,57L719,36L793,258Z" fill="#b8b8b8" stroke="#b8b8b8" stroke-width="1.51"/><path d="M1965,1316L1796,1153L1601,1314Z" fill="#373737" stroke="#373737" stroke-width="1.51"/><path d="M1601,1314L1796,1153L1398,923Z" fill="#4d4d4d" stroke="#4d4d4d" stroke-width="1.51"/><path d="M1733,666L1897,342L1719,391Z" fill="#717171" stroke="#717171" stroke-width="1.51"/><path d="M719,36L418,237L793,258Z" fill="#c0c0c0" stroke="#c0c0c0" stroke-width="1.51"/><path d="M1719,391L1677,65L1531,221Z" fill="#8a8a8a" stroke="#8a8a8a" stroke-width="1.51"/><path d="M1531,221L1373,-116L1195,282Z" fill="#9e9e9e" stroke="#9e9e9e" stroke-width="1.51"/><path d="M1089,57L736,-290L719,36Z" fill="#c2c2c2" stroke="#c2c2c2" stroke-width="1.51"/><path d="M1719,391L1897,342L1677,65Z" fill="#808080" stroke="#808080" stroke-width="1.51"/><path d="M2070,639L1897,342L1733,666Z" fill="#636363" stroke="#636363" stroke-width="1.51"/><path d="M1677,65L1373,-116L1531,221Z" fill="#999999" stroke="#999999" stroke-width="1.51"/><path d="M238,211L163,680L406,596Z" fill="#bababa" stroke="#bababa" stroke-width="1.51"/><path d="M406,596L164,824L560,885Z" fill="#a1a1a1" stroke="#a1a1a1" stroke-width="1.51"/><path d="M493,1037L501,1482L687,1153Z" fill="#747474" stroke="#747474" stroke-width="1.51"/><path d="M163,680L164,824L406,596Z" fill="#ababab" stroke="#ababab" stroke-width="1.51"/><path d="M1373,-116L1171,-213L1089,57Z" fill="#b0b0b0" stroke="#b0b0b0" stroke-width="1.51"/><path d="M766,1386L501,1482L1051,1376Z" fill="#5b5b5b" stroke="#5b5b5b" stroke-width="1.51"/><path d="M97,1165L501,1482L493,1037Z" fill="#7b7b7b" stroke="#7b7b7b" stroke-width="1.51"/><path d="M2092,861L2070,639L1733,666Z" fill="#545454" stroke="#545454" stroke-width="1.51"/><path d="M1796,1153L2092,861L1733,666Z" fill="#4e4e4e" stroke="#4e4e4e" stroke-width="1.51"/><path d="M549,-116L418,237L719,36Z" fill="#cbcbcb" stroke="#cbcbcb" stroke-width="1.51"/><path d="M331,-27L238,211L418,237Z" fill="#cfcfcf" stroke="#cfcfcf" stroke-width="1.51"/><path d="M418,237L238,211L406,596Z" fill="#c2c2c2" stroke="#c2c2c2" stroke-width="1.51"/><path d="M736,-290L549,-116L719,36Z" fill="#cecece" stroke="#cecece" stroke-width="1.51"/><path d="M1796,1153L2139,1197L2092,861Z" fill="#3b3b3b" stroke="#3b3b3b" stroke-width="1.51"/><path d="M1489,1426L1965,1316L1601,1314Z" fill="#373737" stroke="#373737" stroke-width="1.51"/><path d="M1540,-392L1530,-237L1857,-285Z" fill="#a1a1a1" stroke="#a1a1a1" stroke-width="1.51"/><path d="M1677,65L1530,-237L1373,-116Z" fill="#a0a0a0" stroke="#a0a0a0" stroke-width="1.51"/><path d="M1373,-116L1530,-237L1171,-213Z" fill="#acacac" stroke="#acacac" stroke-width="1.51"/><path d="M549,-116L331,-27L418,237Z" fill="#d1d1d1" stroke="#d1d1d1" stroke-width="1.51"/><path d="M549,-116L375,-290L331,-27Z" fill="#dadada" stroke="#dadada" stroke-width="1.51"/><path d="M1171,-213L736,-290L1089,57Z" fill="#bdbdbd" stroke="#bdbdbd" stroke-width="1.51"/><path d="M1540,-392L736,-290L1171,-213Z" fill="#bababa" stroke="#bababa" stroke-width="1.51"/><path d="M1965,1316L2059,1254L1796,1153Z" fill="#2f2f2f" stroke="#2f2f2f" stroke-width="1.51"/><path d="M164,824L97,1165L493,1037Z" fill="#959595" stroke="#959595" stroke-width="1.51"/><path d="M-19,1124L97,1165L164,824Z" fill="#989898" stroke="#989898" stroke-width="1.51"/><path d="M2059,1254L2139,1197L1796,1153Z" fill="#2f2f2f" stroke="#2f2f2f" stroke-width="1.51"/><path d="M2092,861L2287,718L2070,639Z" fill="#484848" stroke="#484848" stroke-width="1.51"/><path d="M2139,1197L2287,718L2092,861Z" fill="#3c3c3c" stroke="#3c3c3c" stroke-width="1.51"/><path d="M2338,404L2269,221L1897,342Z" fill="#636363" stroke="#636363" stroke-width="1.51"/><path d="M1857,-285L1530,-237L1677,65Z" fill="#9a9a9a" stroke="#9a9a9a" stroke-width="1.51"/><path d="M97,1165L100,1388L501,1482Z" fill="#757575" stroke="#757575" stroke-width="1.51"/><path d="M-118,801L-19,1124L164,824Z" fill="#a2a2a2" stroke="#a2a2a2" stroke-width="1.51"/><path d="M-118,801L164,824L163,680Z" fill="#ababab" stroke="#ababab" stroke-width="1.51"/><path d="M-137,1286L100,1388L97,1165Z" fill="#818181" stroke="#818181" stroke-width="1.51"/><path d="M1530,-237L1540,-392L1171,-213Z" fill="#acacac" stroke="#acacac" stroke-width="1.51"/><path d="M1857,-285L1677,65L2053,-126Z" fill="#8c8c8c" stroke="#8c8c8c" stroke-width="1.51"/><path d="M238,211L27,175L163,680Z" fill="#c8c8c8" stroke="#c8c8c8" stroke-width="1.51"/><path d="M331,-27L27,175L238,211Z" fill="#d6d6d6" stroke="#d6d6d6" stroke-width="1.51"/><path d="M-168,655L-118,801L163,680Z" fill="#b3b3b3" stroke="#b3b3b3" stroke-width="1.51"/><path d="M331,-27L-65,-30L27,175Z" fill="#dddddd" stroke="#dddddd" stroke-width="1.51"/><path d="M487,-401L375,-290L549,-116Z" fill="#dddddd" stroke="#dddddd" stroke-width="1.51"/><path d="M487,-401L549,-116L736,-290Z" fill="#d8d8d8" stroke="#d8d8d8" stroke-width="1.51"/><path d="M2053,-126L1677,65L1897,342Z" fill="#828282" stroke="#828282" stroke-width="1.51"/><path d="M2139,1197L2186,1394L2287,718Z" fill="#2e2e2e" stroke="#2e2e2e" stroke-width="1.51"/><path d="M2059,1254L2186,1394L2139,1197Z" fill="#222222" stroke="#222222" stroke-width="1.51"/><path d="M1965,1316L2186,1394L2059,1254Z" fill="#222222" stroke="#222222" stroke-width="1.51"/><path d="M1489,1426L2186,1394L1965,1316Z" fill="#292929" stroke="#292929" stroke-width="1.51"/><path d="M501,1482L2186,1394L1489,1426Z" fill="#3e3e3e" stroke="#3e3e3e" stroke-width="1.51"/><path d="M2338,404L1897,342L2070,639Z" fill="#5d5d5d" stroke="#5d5d5d" stroke-width="1.51"/><path d="M27,175L-168,655L163,680Z" fill="#c1c1c1" stroke="#c1c1c1" stroke-width="1.51"/><path d="M-293,1243L-137,1286L-19,1124Z" fill="#8b8b8b" stroke="#8b8b8b" stroke-width="1.51"/><path d="M2287,718L2338,404L2070,639Z" fill="#4e4e4e" stroke="#4e4e4e" stroke-width="1.51"/><path d="M2186,1394L2338,404L2287,718Z" fill="#3d3d3d" stroke="#3d3d3d" stroke-width="1.51"/><path d="M2269,221L2053,-126L1897,342Z" fill="#717171" stroke="#717171" stroke-width="1.51"/><path d="M1540,-392L487,-401L736,-290Z" fill="#c8c8c8" stroke="#c8c8c8" stroke-width="1.51"/><path d="M-293,1243L-19,1124L-118,801Z" fill="#9d9d9d" stroke="#9d9d9d" stroke-width="1.51"/><path d="M-19,1124L-137,1286L97,1165Z" fill="#8b8b8b" stroke="#8b8b8b" stroke-width="1.51"/><path d="M2269,221L2147,-165L2053,-126Z" fill="#757575" stroke="#757575" stroke-width="1.51"/><path d="M2053,-126L2165,-243L1857,-285Z" fill="#848484" stroke="#848484" stroke-width="1.51"/><path d="M2165,-243L2147,-165L2269,221Z" fill="#757575" stroke="#757575" stroke-width="1.51"/><path d="M-90,-192L331,-27L375,-290Z" fill="#e3e3e3" stroke="#e3e3e3" stroke-width="1.51"/><path d="M-90,-192L-65,-30L331,-27Z" fill="#e4e4e4" stroke="#e4e4e4" stroke-width="1.51"/><path d="M27,175L-348,307L-168,655Z" fill="#d0d0d0" stroke="#d0d0d0" stroke-width="1.51"/><path d="M2147,-165L2165,-243L2053,-126Z" fill="#7d7d7d" stroke="#7d7d7d" stroke-width="1.51"/><path d="M1857,-285L2165,-243L1540,-392Z" fill="#939393" stroke="#939393" stroke-width="1.51"/><path d="M2338,404L2165,-243L2269,221Z" fill="#696969" stroke="#696969" stroke-width="1.51"/><path d="M-137,1286L-214,1461L100,1388Z" fill="#7c7c7c" stroke="#7c7c7c" stroke-width="1.51"/><path d="M-403,841L-293,1243L-118,801Z" fill="#a6a6a6" stroke="#a6a6a6" stroke-width="1.51"/><path d="M-403,841L-118,801L-168,655Z" fill="#b4b4b4" stroke="#b4b4b4" stroke-width="1.51"/><path d="M-293,1243L-214,1461L-137,1286Z" fill="#828282" stroke="#828282" stroke-width="1.51"/><path d="M100,1388L-214,1461L501,1482Z" fill="#717171" stroke="#717171" stroke-width="1.51"/><path d="M-434,432L-403,841L-168,655Z" fill="#bfbfbf" stroke="#bfbfbf" stroke-width="1.51"/><path d="M-402,-404L-90,-192L375,-290Z" fill="#f0f0f0" stroke="#f0f0f0" stroke-width="1.51"/><path d="M-348,307L27,175L-65,-30Z" fill="#dedede" stroke="#dedede" stroke-width="1.51"/><path d="M-275,-167L-348,307L-65,-30Z" fill="#e7e7e7" stroke="#e7e7e7" stroke-width="1.51"/><path d="M-402,-404L-434,432L-348,307Z" fill="#e6e6e6" stroke="#e6e6e6" stroke-width="1.51"/><path d="M-348,307L-434,432L-168,655Z" fill="#cccccc" stroke="#cccccc" stroke-width="1.51"/><path d="M-90,-192L-275,-167L-65,-30Z" fill="#ececec" stroke="#ececec" stroke-width="1.51"/><path d="M-402,-404L-275,-167L-90,-192Z" fill="#f4f4f4" stroke="#f4f4f4" stroke-width="1.51"/><path d="M-275,-167L-402,-404L-348,307Z" fill="#eeeeee" stroke="#eeeeee" stroke-width="1.51"/><path d="M487,-401L-402,-404L375,-290Z" fill="#ebebeb" stroke="#ebebeb" stroke-width="1.51"/></svg>