<svg xmlns="http://www.w3.org/2000/svg" width="64.52" height="46.859" viewBox="0 0 64.52 46.859"><g transform="translate(-1416.434 -767.271)"><path d="M48.931,969.362a45.831,45.831,0,0,0-23.949,7.477,25.72,25.72,0,0,0-8.281,8.5,15.158,15.158,0,0,0-1.5,11.152c-1.122,1.712-2.023,3.824-3.2,5.505a17.219,17.219,0,0,0,4.46-4.543c5.258.172,13.3-3.049,20.384-7.966,7.114-4.941,13.41-11.486,13.637-18.566a1.586,1.586,0,0,0-1.551-1.562Zm-1.775,3.186c-.943,4.122-4.654,8.646-9.433,12.477a30.744,30.744,0,0,1-6.795.473,12.751,12.751,0,0,0,4.572,1.2c-4.549,3.187-10.943,6.628-16.771,7.635,4.209-5.79,8.555-10.858,20.9-16.563-11.471,3.638-17.121,6.918-21.791,14.055a12.061,12.061,0,0,1,1.551-5.016,22.878,22.878,0,0,1,7.322-7.461A38.009,38.009,0,0,1,33.1,975.94a14.319,14.319,0,0,0,.272,2.051A7.582,7.582,0,0,1,34.99,975.2a43.9,43.9,0,0,1,12.166-2.65Z" transform="translate(1058.791 -112.595) rotate(-22)"/><path d="M-6.878,1003.9c-2.475.074-5.931.9-11.447,3.171,20.114-5.553,14.08,4.539,29.673-.158-11.93,1.561-11.9-3.2-18.226-3.013Z" transform="translate(1434.759 -194.071)"/></g></svg>