<svg xmlns="http://www.w3.org/2000/svg" viewBox="0 0 51.046 55"><defs><style>.a{fill:#333;}</style></defs><path class="a" d="M59.281,5c-3.13.52-6.162.035-9.206.262C34.913,6.4,36.168,16.953,36.436,24.152c-10.626,1.614-23.578-1.638-28.2-.574,1.536,2.348,5.084,5.835,7.733,6.627-1.5,1.068-3.513,1.277-5.332,1.9a33.271,33.271,0,0,0,8.009,4.968,45.764,45.764,0,0,1-4.393,1.634c3.535,3.649,9.207,5.08,14.139,5.438-3.868,11-11.262,10.776-15.751,11.881,7.825,3.34,19.975,5.283,25.952,2.949,9.209-3.6,14.222-9.176,17.488-18.629,2.037-5.9,1-10.716-.524-16.885-.969-3.935-1.412-5.5-1.088-9.511A12.787,12.787,0,0,1,59.281,5Z" transform="translate(-8.235 -5)"/></svg>