<svg xmlns="http://www.w3.org/2000/svg" viewBox="0 0 27.379 29.5"><defs><style>.a{fill:#1da1f2;}</style></defs><g transform="translate(-8.235 -5)"><path class="a" d="M35.614,5c-1.679.279-3.3.019-4.938.14-8.132.609-7.459,6.271-7.315,10.132-5.7.866-12.646-.879-15.126-.308a9.923,9.923,0,0,0,4.148,3.554,10.974,10.974,0,0,1-2.86,1.02,17.845,17.845,0,0,0,4.3,2.665,24.544,24.544,0,0,1-2.356.876c1.9,1.957,4.938,2.725,7.584,2.917-2.075,5.9-6.041,5.78-8.448,6.372,4.2,1.791,10.714,2.834,13.92,1.582,4.94-1.929,7.628-4.922,9.38-9.992,1.093-3.164.534-5.748-.281-9.056a12.794,12.794,0,0,1-.583-5.1A6.858,6.858,0,0,1,35.614,5Z"/></g></svg>